<?xml version="1.0" standalone="no"?>
<!DOCTYPE svg PUBLIC "-//W3C//DTD SVG 20010904//EN"
 "http://www.w3.org/TR/2001/REC-SVG-20010904/DTD/svg10.dtd">
<svg version="1.0" xmlns="http://www.w3.org/2000/svg"
 width="704.000000pt" height="704.000000pt" viewBox="0 0 704.000000 704.000000"
 preserveAspectRatio="xMidYMid meet">
<metadata>
Created by potrace 1.11, written by Peter Selinger 2001-2013
</metadata>
<g transform="translate(0.000000,704.000000) scale(0.100000,-0.100000)"
fill="#000000" stroke="none">
<path d="M2794 6427 c28 -49 64 -110 79 -135 15 -26 32 -56 37 -67 6 -11 14
-27 20 -35 5 -8 37 -62 70 -120 33 -58 65 -112 70 -120 6 -8 13 -22 17 -30 4
-8 9 -17 12 -20 3 -3 14 -21 24 -40 10 -19 23 -44 30 -55 7 -11 45 -77 85
-147 58 -102 78 -128 95 -128 12 0 347 -1 744 -1 l722 -1 55 -93 c31 -52 56
-96 56 -98 0 -3 23 -42 50 -86 28 -44 50 -82 50 -85 0 -2 29 -53 64 -114 36
-61 76 -131 89 -154 30 -54 335 -581 408 -706 64 -110 47 -80 193 -335 76
-132 125 -207 135 -207 128 -4 1114 -1 1117 3 5 4 -40 88 -103 192 -7 11 -16
27 -20 35 -4 8 -32 58 -63 110 -31 52 -59 102 -63 110 -4 8 -15 29 -26 45 -31
52 -133 228 -164 285 -16 30 -33 60 -37 65 -4 6 -17 26 -28 45 -11 19 -52 91
-92 160 -40 69 -84 145 -98 170 -14 25 -82 142 -150 260 -69 118 -139 240
-155 270 -17 30 -33 57 -36 60 -7 5 -49 81 -66 117 -5 13 -13 23 -17 23 -5 0
-8 5 -8 10 0 6 -37 75 -83 153 -46 79 -86 150 -90 157 -4 8 -18 33 -32 55 -14
22 -35 58 -47 80 -12 22 -28 49 -35 60 -7 11 -18 31 -25 45 -6 14 -17 32 -24
40 -6 8 -25 40 -41 70 -17 30 -55 98 -86 150 l-56 95 -1314 1 -1313 0 50 -89z"/>
<path d="M3683 4652 c-12 -20 -31 -55 -43 -77 -12 -22 -27 -43 -32 -46 -5 -3
-10 -13 -12 -21 -1 -8 -9 -27 -19 -41 -9 -15 -17 -31 -17 -37 0 -5 -4 -10 -10
-10 -5 0 -10 -4 -10 -10 0 -5 -17 -38 -38 -72 -21 -35 -41 -70 -45 -78 -4 -8
-15 -29 -26 -45 -10 -17 -79 -136 -153 -265 -75 -129 -145 -251 -157 -270 -11
-19 -24 -42 -28 -50 -3 -8 -9 -17 -12 -20 -3 -3 -15 -23 -26 -45 -11 -22 -48
-86 -82 -142 -34 -57 -59 -103 -55 -103 4 0 2 -4 -4 -8 -5 -4 -22 -27 -35 -52
-35 -62 -57 -101 -165 -287 -52 -90 -94 -164 -94 -165 0 -3 2160 -1 2168 1 2
1 -10 25 -26 54 -17 28 -39 68 -50 87 -71 126 -137 239 -153 262 -10 15 -19
34 -19 42 0 8 -4 16 -8 18 -4 2 -38 55 -74 118 -37 63 -75 131 -87 150 -11 19
-33 58 -49 85 -32 56 -33 59 -162 280 -89 153 -112 193 -142 246 -7 13 -15 26
-18 29 -6 6 -50 86 -65 117 -5 13 -13 23 -17 23 -5 0 -8 5 -8 11 0 6 -31 63
-69 127 -38 64 -79 135 -91 157 -44 79 -44 79 -67 37z"/>
<path d="M106 3502 c15 -26 42 -72 60 -102 17 -30 41 -71 52 -90 10 -19 49
-86 86 -149 36 -62 66 -116 66 -118 0 -3 8 -17 19 -31 18 -26 73 -124 95 -169
6 -13 14 -23 19 -23 4 0 7 -4 7 -9 0 -5 44 -84 98 -177 54 -93 101 -176 105
-184 4 -8 16 -28 26 -45 11 -16 28 -46 39 -65 29 -53 56 -99 91 -158 17 -29
31 -56 31 -59 0 -4 6 -14 14 -22 7 -9 27 -41 43 -71 66 -119 87 -155 95 -158
4 -2 8 -8 8 -14 0 -5 24 -51 54 -101 29 -51 63 -108 74 -127 20 -35 75 -130
118 -205 13 -22 29 -51 36 -65 6 -14 17 -32 24 -40 6 -8 23 -35 36 -60 14 -25
107 -188 208 -362 166 -290 185 -318 209 -318 64 0 2568 -1 2584 0 16 0 16 4
-8 43 -14 23 -35 62 -48 87 -12 25 -25 47 -28 50 -3 3 -12 17 -20 32 -12 23
-104 182 -146 253 -7 11 -16 27 -20 35 -4 8 -67 118 -140 244 -73 125 -133
232 -133 237 0 5 -323 9 -747 9 l-748 0 -41 73 c-23 39 -114 197 -203 350 -89
153 -161 281 -161 283 0 2 -15 27 -33 56 -19 29 -51 85 -72 123 -20 39 -44 77
-51 86 -8 8 -14 19 -14 22 0 4 -27 52 -60 108 -33 55 -60 105 -60 110 0 5 -4
9 -10 9 -5 0 -10 5 -10 11 0 9 -86 162 -129 229 -8 14 -16 27 -16 30 -1 5 -84
150 -146 253 -16 26 -29 52 -29 57 0 6 -4 10 -9 10 -5 0 -13 10 -17 22 -3 12
-22 45 -40 74 -19 29 -34 58 -34 64 0 7 -175 10 -575 10 l-575 -1 26 -47z"/>
</g>
</svg>
