<svg xmlns="http://www.w3.org/2000/svg" viewBox="0 0 17 12" width="17" height="12">
	<style>
		tspan { white-space:pre }
		.shp0 { fill: #ff7500 } 
	</style>
	<path id="Layer" class="shp0" d="M14.41,0.53c0.23,0 0.46,0.04 0.68,0.13c0.21,0.09 0.41,0.22 0.57,0.38c0.16,0.16 0.3,0.36 0.38,0.57c0.09,0.21 0.13,0.44 0.13,0.68v7.95c0,0.23 -0.05,0.46 -0.13,0.68c-0.09,0.21 -0.22,0.41 -0.38,0.57c-0.16,0.16 -0.36,0.29 -0.57,0.38c-0.21,0.09 -0.44,0.13 -0.68,0.13l-12.35,0c-0.23,0 -0.45,-0.04 -0.67,-0.13c-0.21,-0.08 -0.4,-0.21 -0.57,-0.37c-0.16,-0.16 -0.3,-0.35 -0.39,-0.56c-0.09,-0.21 -0.14,-0.43 -0.15,-0.66l0,-8c0,-0.23 0.05,-0.46 0.13,-0.68c0.09,-0.21 0.22,-0.41 0.38,-0.57c0.16,-0.16 0.36,-0.29 0.57,-0.38c0.21,-0.09 0.44,-0.13 0.68,-0.13zM2.06,1.41c-0.05,0 -0.1,0.01 -0.15,0.02c-0.05,0.01 -0.1,0.02 -0.15,0.04c-0.05,0.02 -0.09,0.04 -0.14,0.07c-0.04,0.03 -0.08,0.06 -0.12,0.09l6.14,6.15c0.08,0.08 0.17,0.14 0.27,0.19c0.1,0.04 0.21,0.07 0.32,0.07c0.11,0 0.22,-0.02 0.32,-0.07c0.1,-0.04 0.19,-0.11 0.27,-0.19l6.15,-6.15c-0.04,-0.03 -0.08,-0.07 -0.13,-0.09c-0.04,-0.03 -0.09,-0.05 -0.14,-0.07c-0.05,-0.02 -0.1,-0.03 -0.15,-0.04c-0.05,-0.01 -0.1,-0.02 -0.15,-0.02zM1.18,2.57v7.43l3.69,-3.74zM14.41,11.12c0.05,0 0.1,-0.01 0.15,-0.02c0.05,-0.01 0.1,-0.03 0.15,-0.05c0.05,-0.02 0.09,-0.04 0.14,-0.07c0.04,-0.03 0.08,-0.06 0.12,-0.09l-4,-4l-1.51,1.51c-0.16,0.16 -0.35,0.29 -0.56,0.38c-0.21,0.09 -0.44,0.13 -0.66,0.13c-0.23,0 -0.45,-0.04 -0.66,-0.13c-0.21,-0.09 -0.4,-0.22 -0.56,-0.38l-1.51,-1.5l-4,4c0.04,0.03 0.08,0.06 0.12,0.09c0.04,0.03 0.09,0.05 0.14,0.07c0.05,0.02 0.1,0.03 0.15,0.04c0.05,0.01 0.1,0.02 0.15,0.02zM15.29,10v-7.39l-3.69,3.69zM17.94,-3c0.23,0 0.46,0.04 0.68,0.13c0.21,0.09 0.41,0.22 0.57,0.38c0.16,0.16 0.3,0.36 0.38,0.57c0.09,0.21 0.13,0.44 0.13,0.68l0,8c0,0.23 -0.05,0.46 -0.13,0.68c-0.09,0.21 -0.22,0.41 -0.38,0.57c-0.16,0.16 -0.36,0.29 -0.57,0.38c-0.21,0.09 -0.44,0.13 -0.68,0.13h-0.44c-0.12,0 -0.23,-0.05 -0.31,-0.13c-0.08,-0.08 -0.13,-0.19 -0.13,-0.31c0,-0.12 0.05,-0.23 0.13,-0.31c0.08,-0.08 0.19,-0.13 0.31,-0.13l0.44,0c0.12,0 0.23,-0.02 0.34,-0.07c0.11,-0.04 0.2,-0.11 0.29,-0.19c0.08,-0.08 0.15,-0.18 0.19,-0.29c0.04,-0.11 0.07,-0.22 0.07,-0.34l0,-8c0,-0.12 -0.02,-0.23 -0.07,-0.34c-0.04,-0.11 -0.11,-0.2 -0.19,-0.29c-0.08,-0.08 -0.18,-0.15 -0.29,-0.19c-0.11,-0.04 -0.22,-0.07 -0.34,-0.07l-12.35,0c-0.12,0 -0.23,0.02 -0.34,0.07c-0.11,0.04 -0.2,0.11 -0.29,0.19c-0.08,0.08 -0.15,0.18 -0.19,0.29c-0.04,0.11 -0.07,0.22 -0.07,0.34v0.45c-0.02,0.11 -0.07,0.2 -0.15,0.27c-0.08,0.07 -0.19,0.11 -0.29,0.11c-0.11,0 -0.21,-0.04 -0.29,-0.11c-0.08,-0.07 -0.14,-0.17 -0.15,-0.27v-0.45c0,-0.23 0.05,-0.46 0.13,-0.68c0.09,-0.21 0.22,-0.41 0.38,-0.57c0.16,-0.16 0.36,-0.29 0.57,-0.38c0.21,-0.09 0.44,-0.13 0.68,-0.13z" />
</svg>