<?xml version="1.0" encoding="UTF-8"?>
<svg width="120px" height="137px" viewBox="0 0 120 137" version="1.1" xmlns="http://www.w3.org/2000/svg" xmlns:xlink="http://www.w3.org/1999/xlink">
    <!-- Generator: Sketch 50.2 (55047) - http://www.bohemiancoding.com/sketch -->
    <title>luis_benefits_guarantee</title>
    <desc>Created with Sketch.</desc>
    <defs></defs>
    <g id="Desktop" stroke="none" stroke-width="1" fill="none" fill-rule="evenodd">
        <g id="Artboard" transform="translate(-5119.000000, -2030.000000)" fill="#1F2A44">
            <g id="luis_benefits_guarantee" transform="translate(5119.000000, 2030.000000)">
                <path d="M120,102.75 L120,34.25 L60,0 L0,34.25 L0,102.75 L60,137 L120,102.75 Z M113.33,98.94 L60,129.39 L6.67,98.94 L6.67,38.06 L60,7.61 L113.33,38.06 L113.33,98.94 Z M58.56,110.21 L60.68,110.26 L60.9,101.59 L58.5,101.53 L58.38,106.11 L54.89,101.44 L52.62,101.38 L52.4,110.06 L54.8,110.12 L54.92,105.36 L58.56,110.21 Z M60.48,76.72 C61.61,79.94 65.08,81.97 69.76,81.97 C75.48,81.97 79.51,78.97 79.51,74.38 L79.51,74.23 C79.51,71.03 77.81,69.23 75.44,68.02 C77.5117151,66.8771568 78.795863,64.6960219 78.79,62.33 L78.79,62.21 C78.79,58.05 75.14,55.03 69.79,55.03 C64.44,55.03 60.79,58.03 60.79,62.21 L60.79,62.33 C60.7832431,64.6831119 62.0545931,66.8543632 64.11,68 C62.5549553,68.6880526 61.3135877,69.9329874 60.63,71.49 L56.28,71.49 L56.28,55.41 L49.51,55.41 L37.77,72 L40.48,76.72 L49.81,76.72 L49.81,81.6 L56.28,81.6 L56.28,76.72 L60.48,76.72 Z M49.85,71.55 L44.5,71.55 L49.85,63.85 L49.85,71.55 Z M72.58,63 C72.709132,64.076537 72.207382,65.1313197 71.2907012,65.7103736 C70.3740204,66.2894275 69.2059796,66.2894275 68.2892988,65.7103736 C67.372618,65.1313197 66.870868,64.076537 67,63 C66.9377505,61.9579016 67.4583499,60.9671888 68.3518831,60.4273346 C69.2454163,59.8874805 70.3645837,59.8874805 71.2581169,60.4273346 C72.1516501,60.9671888 72.6722495,61.9579016 72.61,63 L72.58,63 Z M66.58,73.68 C66.6754907,71.9631567 68.0955031,70.6199305 69.815,70.6199305 C71.5344969,70.6199305 72.9545093,71.9631567 73.05,73.68 L73.05,73.76 C72.9545093,75.4768433 71.5344969,76.8200695 69.815,76.8200695 C68.0955031,76.8200695 66.6754907,75.4768433 66.58,73.76 L66.58,73.68 Z M64.6778348,103.950276 L67.2140223,103.294339 L68.9359682,109.656808 L71.2846546,109.043805 L69.5530494,102.678748 L72.0988961,102.0254 L71.5486536,99.9834072 L64.1275923,101.908284 L64.6778348,103.950276 Z M90.53,88.08 L97.19,88.08 L93.86,82.37 L90.53,88.08 Z M34.3,43.51 L37.65,41.15 L36.45,39.47 L33.09,41.83 L34.3,43.51 Z M32.3970009,46.322402 C31.0151584,45.4500422 29.7856421,46.1474585 28.33249,47.5810725 C27.4353478,48.468561 27.1187673,48.6217825 26.782577,48.4120778 C26.5148248,48.2400058 26.4736743,47.8710795 26.7880935,47.3922888 C27.2946238,46.6604548 28.0157644,46.1038309 28.8520383,45.7992 L28.0679531,43.9141773 C26.8416466,44.3446123 25.802831,45.1874713 25.1289584,46.2987758 C23.9937205,48.0577059 24.284555,49.7635532 25.6546731,50.6280048 C27.1635754,51.5775383 28.3903789,50.6565316 29.7527247,49.3322531 C30.6065099,48.4837539 30.9642635,48.3327163 31.2789132,48.5364209 C31.5916548,48.7303093 31.5913563,49.1480411 31.2313961,49.7069943 C30.6536361,50.5665316 29.7999279,51.2032437 28.8113299,51.5119264 L29.4339869,53.5098249 C30.8706969,53.0562994 32.0926843,52.0943636 32.8708987,50.8043235 C34.0336772,49.0298529 33.897995,47.2836598 32.3970009,46.322402 Z M28.9803973,56.3114003 L21.0228428,52.6710944 L19.9987312,54.8486378 L27.9571572,58.4989056 L28.9803973,56.3114003 Z M24.1793085,59.9039795 L19.3400826,59.3581842 L19.0553244,61.7700948 L23.9594765,62.3327598 C24.4290352,62.3070216 24.8846195,62.4972406 25.1964639,62.8492362 C25.5083083,63.2012318 25.6422311,63.6764212 25.5600867,64.1394549 C25.4383582,65.1058824 24.7704283,65.6670149 23.5114074,65.5154684 L18.6624,64.9717523 L18.3678603,67.385742 L23.2684683,67.9798305 C25.9925352,68.2902486 27.4329207,66.8901808 27.7330836,64.454549 C28.0332466,62.0189172 26.9766181,60.2703931 24.1778435,59.9451845 L24.1793085,59.9039795 Z M24.6593297,74.2404813 L18.0517794,75.0075396 L18.3263787,77.3925333 L27.0515505,76.3884525 L26.3013536,69.8290238 L24.1837322,70.0660464 L24.6593297,74.2404813 Z M26.11,82.38 L22.78,88.09 L29.44,88.09 L26.11,82.38 Z M34.29,90.57 L28.87,97.39 L30.74,98.85 L33.85,94.94 L33.49,98.94 L37.38,97.64 L34.26,101.56 L36.17,103.03 L41.59,96.21 L39.59,94.64 L35.84,96 L36.29,92.08 L34.29,90.57 Z M41.21,101.41 C40.7618618,102.548634 40.7989718,103.821023 41.3127097,104.931604 C41.8264476,106.042184 42.7720995,106.894295 43.93,107.29 C45.0627486,107.776289 46.3432811,107.787582 47.4844301,107.321347 C48.6255791,106.855111 49.5318479,105.950364 50,104.81 C50.4527785,103.670032 50.4205931,102.394637 49.910892,101.278958 C49.4011909,100.163279 48.4581495,99.3040109 47.3,98.9 C46.1641093,98.4158222 44.8818741,98.4054276 43.738283,98.8711264 C42.594692,99.3368252 41.684498,100.240032 41.21,101.38 L41.21,101.41 Z M43.52,102.28 C43.7246198,101.70639 44.1520825,101.23964 44.705537,100.985503 C45.2589915,100.731366 45.8915888,100.711353 46.46,100.93 C47.0306836,101.152573 47.4846855,101.600096 47.7154386,102.167522 C47.9461916,102.734947 47.933376,103.372309 47.68,103.93 C47.411412,104.709872 46.735964,105.279039 45.9218442,105.411512 C45.1077245,105.543984 44.2866715,105.218326 43.7846865,104.563841 C43.2827015,103.909356 43.1810143,103.03195 43.52,102.28 Z" id="Shape" fill-rule="nonzero"></path>
                <path d="M43.5342553,41.3180765 C41.0512553,41.3180765 39.1792553,39.5630765 39.1792553,36.7030765 L39.1792553,36.5210765 C39.1792553,33.8040765 41.0382553,31.9060765 43.5602553,31.9060765 C44.8472553,31.9060765 45.7962553,32.2830765 46.6802553,33.0110765 L45.3802553,34.7790765 C44.9122553,34.3500765 44.3792553,34.0380765 43.5992553,34.0380765 C42.4422553,34.0380765 41.5582553,35.0390765 41.5582553,36.5600765 L41.5582553,36.6900765 C41.5582553,38.3540765 42.4552553,39.2640765 43.6252553,39.2640765 C44.0802553,39.2640765 44.4312553,39.1730765 44.6782553,39.0040765 L44.6782553,37.6520765 L43.2352553,37.6520765 L43.2352553,35.8450765 L46.8752553,35.8450765 L46.8752553,40.1740765 C46.0302553,40.8240765 44.9122553,41.3180765 43.5342553,41.3180765 Z" id="G" transform="translate(43.027255, 36.612076) rotate(-23.000000) translate(-43.027255, -36.612076) "></path>
                <path d="M53.4805,37.169 C51.2575,37.169 49.8015,35.986 49.8015,33.399 L49.8015,27.9 L52.1675,27.9 L52.1675,33.412 C52.1675,34.517 52.7005,35.037 53.5065,35.037 C54.3125,35.037 54.8455,34.53 54.8455,33.451 L54.8455,27.9 L57.1985,27.9 L57.1985,33.347 C57.1985,35.999 55.7035,37.169 53.4805,37.169 Z" id="U" transform="translate(53.500000, 32.534500) rotate(-5.000000) translate(-53.500000, -32.534500) "></path>
                <path d="M59.4892508,36.5534429 L62.6872508,27.4014429 L65.0662508,27.4014429 L68.2642508,36.5534429 L65.8072508,36.5534429 L65.2742508,34.9154429 L62.4142508,34.9154429 L61.8942508,36.5534429 L59.4892508,36.5534429 Z M63.0122508,33.0434429 L64.6892508,33.0434429 L63.8442508,30.3784429 L63.0122508,33.0434429 Z" id="A" transform="translate(63.876751, 31.977443) rotate(10.000000) translate(-63.876751, -31.977443) "></path>
                <path d="M71.0901592,38.9879583 L71.0901592,29.8879583 L74.6651592,29.8879583 C75.9001592,29.8879583 76.8101592,30.2129583 77.3951592,30.7979583 C77.9151592,31.3179583 78.1881592,32.0199583 78.1881592,32.9429583 L78.1881592,33.0079583 C78.1881592,34.3469583 77.5381592,35.2049583 76.5631592,35.6859583 L78.4481592,38.9879583 L75.7961592,38.9879583 L74.2491592,36.1669583 L73.4301592,36.1669583 L73.4301592,38.9879583 L71.0901592,38.9879583 Z M73.4301592,34.2949583 L74.5741592,34.2949583 C75.3671592,34.2949583 75.8351592,33.8529583 75.8351592,33.1249583 L75.8351592,33.0859583 C75.8351592,32.3059583 75.3541592,31.9159583 74.5611592,31.9159583 L73.4301592,31.9159583 L73.4301592,34.2949583 Z" id="R" transform="translate(74.769159, 34.437958) rotate(22.000000) translate(-74.769159, -34.437958) "></path>
                <path d="M79.2503776,44.7681071 L82.4483776,35.6161071 L84.8273776,35.6161071 L88.0253776,44.7681071 L85.5683776,44.7681071 L85.0353776,43.1301071 L82.1753776,43.1301071 L81.6553776,44.7681071 L79.2503776,44.7681071 Z M82.7733776,41.2581071 L84.4503776,41.2581071 L83.6053776,38.5931071 L82.7733776,41.2581071 Z" id="A" transform="translate(83.637878, 40.192107) rotate(43.000000) translate(-83.637878, -40.192107) "></path>
                <polygon id="N" transform="translate(90.593285, 48.743768) rotate(57.000000) translate(-90.593285, -48.743768) " points="86.8297853 53.2937679 86.8297853 44.1937679 89.0267853 44.1937679 92.0557853 48.7697679 92.0557853 44.1937679 94.3567853 44.1937679 94.3567853 53.2937679 92.2897853 53.2937679 89.1307853 48.5227679 89.1307853 53.2937679"></polygon>
                <polygon id="T" transform="translate(95.251406, 56.645597) rotate(70.000000) translate(-95.251406, -56.645597) " points="94.0749055 61.1955971 94.0749055 54.1885971 91.8259055 54.1885971 91.8259055 52.0955971 98.6769055 52.0955971 98.6769055 54.1885971 96.4149055 54.1885971 96.4149055 61.1955971"></polygon>
                <polygon id="E" transform="translate(97.210651, 65.191592) rotate(84.000000) translate(-97.210651, -65.191592) " points="94.0516509 69.7415923 94.0516509 60.6415923 100.317651 60.6415923 100.317651 62.6825923 96.3786509 62.6825923 96.3786509 64.1905923 99.9276509 64.1905923 99.9276509 66.1275923 96.3786509 66.1275923 96.3786509 67.6875923 100.369651 67.6875923 100.369651 69.7415923"></polygon>
                <polygon id="E-Copy" transform="translate(96.698667, 75.080284) rotate(96.000000) translate(-96.698667, -75.080284) " points="93.5396673 79.6302838 93.5396673 70.5302838 99.8056673 70.5302838 99.8056673 72.5712838 95.8666673 72.5712838 95.8666673 74.0792838 99.4156673 74.0792838 99.4156673 76.0162838 95.8666673 76.0162838 95.8666673 77.5762838 99.8576673 77.5762838 99.8576673 79.6302838"></polygon>
                <polygon id="H" transform="translate(79.793768, 100.536785) rotate(-31.000000) translate(-79.793768, -100.536785) " points="76.1537679 105.086785 76.1537679 95.9867853 78.4937679 95.9867853 78.4937679 99.4447853 81.0937679 99.4447853 81.0937679 95.9867853 83.4337679 95.9867853 83.4337679 105.086785 81.0937679 105.086785 81.0937679 101.563785 78.4937679 101.563785 78.4937679 105.086785"></polygon>
                <path d="M89.039,98.143 C87.7,98.143 86.4,97.714 85.347,96.791 L86.582,95.088 C87.323,95.686 88.181,96.115 89.065,96.115 C89.676,96.115 90.001,95.842 90.001,95.452 L90.001,95.426 C90.001,95.062 89.728,94.841 88.662,94.477 C86.946,93.892 85.75,93.268 85.75,91.617 L85.75,91.578 C85.75,89.927 87.011,88.757 88.987,88.757 C90.209,88.757 91.301,89.095 92.237,89.875 L91.054,91.617 C90.43,91.136 89.676,90.785 88.935,90.785 C88.402,90.785 88.103,91.032 88.103,91.383 L88.103,91.396 C88.103,91.799 88.389,91.994 89.546,92.436 C91.275,92.995 92.354,93.697 92.354,95.244 L92.354,95.27 C92.354,97.038 91.002,98.143 89.039,98.143 Z" id="S" transform="translate(88.850500, 93.450000) rotate(-50.000000) translate(-88.850500, -93.450000) "></path>
            </g>
        </g>
    </g>
</svg>