<?xml version="1.0" encoding="UTF-8"?>
<svg width="48px" height="47px" viewBox="0 0 48 47" version="1.1" xmlns="http://www.w3.org/2000/svg" xmlns:xlink="http://www.w3.org/1999/xlink">
    <!-- Generator: Sketch 50.2 (55047) - http://www.bohemiancoding.com/sketch -->
    <title>luis_benefits_deductibles</title>
    <desc>Created with Sketch.</desc>
    <defs></defs>
    <g id="Symbole" stroke="none" stroke-width="1" fill="none" fill-rule="evenodd">
        <g id="luis_benefits_deductibles" transform="translate(1.000000, 0.000000)" fill-rule="nonzero">
            <g transform="translate(0.000000, 1.000000)">
                <path d="M26.82,0 C16.426001,-5.32907052e-15 8,8.42600101 8,18.82 C8,29.213999 16.426001,37.64 26.82,37.64 C37.213999,37.64 45.64,29.213999 45.64,18.82 C45.6344828,8.42828718 37.2117128,0.00551723654 26.82,1.77635684e-15" id="Shape-Copy" stroke="#1F2A44" stroke-width="2"></path>
                <path d="M18.82,7.36 C8.42600101,7.36 2.33604688e-15,15.786001 -3.55271368e-15,26.18 C-9.44147424e-15,36.573999 8.42600101,45 18.82,45 C29.213999,45 37.64,36.573999 37.64,26.18 C37.6344828,15.7882872 29.2117128,7.36551724 18.82,7.36" id="Shape" stroke="#1F2A44" stroke-width="2" fill="#FFFFFF"></path>
                <path d="M21.43,23 C20.9855297,22.2503525 20.1814739,21.7876412 19.31,21.78 C18.22,21.78 17.31,22.6 16.93,24.01 L20.18,24.01 L20.18,25.4 L16.67,25.4 C16.67,25.63 16.67,25.87 16.67,26.11 L16.67,26.23 C16.67,26.46 16.67,26.67 16.67,26.88 L20.18,26.88 L20.18,28.3 L16.91,28.3 C17.33,29.81 18.23,30.61 19.38,30.61 C20.2647492,30.5755507 21.0711497,30.0932177 21.52,29.33 L22.82,30.54 C22.0613934,31.7231888 20.7554735,32.4420093 19.35,32.45 C17.04,32.45 15.35,30.87 14.83,28.3 L13.42,28.3 L13.42,26.88 L14.64,26.88 C14.6296572,26.6767982 14.6296572,26.4732018 14.64,26.27 L14.64,26.13 C14.64,25.89 14.64,25.64 14.64,25.4 L13.42,25.4 L13.42,24 L14.86,24 C15.47,21.55 17.09,19.93 19.33,19.93 C20.7105674,19.8996002 22.0141277,20.5645287 22.8,21.7 L21.43,23 Z" id="Shape" fill="#1F2A44"></path>
            </g>
        </g>
    </g>
</svg>