<svg xmlns="http://www.w3.org/2000/svg" width="103" height="20" viewBox="0 0 103 20">
    <g fill="#FFF" fill-rule="nonzero">
        <path d="M40.75 15.52a24.72 24.72 0 0 1-13.94 4.26 25.2 25.2 0 0 1-17-6.49c-.35-.32 0-.76.39-.51a34.24 34.24 0 0 0 17 4.52 34 34 0 0 0 13-2.66c.64-.27 1.17.42.55.88"/>
        <path d="M42.32 13.73c-.48-.62-3.19-.29-4.4-.15-.37.05-.43-.27-.1-.51 2.16-1.51 5.7-1.07 6.11-.57.41.5-.11 4.06-2.13 5.75-.32.26-.61.12-.47-.22.45-1.14 1.47-3.68 1-4.3M38 2.37V.9a.37.37 0 0 1 .37-.38h6.6a.37.37 0 0 1 .39.37v1.27a2.26 2.26 0 0 1-.5.92L41.44 8a7.37 7.37 0 0 1 3.76.8.69.69 0 0 1 .35.58v1.57c0 .22-.23.47-.48.34a7.61 7.61 0 0 0-7 0c-.23.12-.47-.13-.47-.34V9.43a1.8 1.8 0 0 1 .25-1l4-5.68h-3.47a.37.37 0 0 1-.38-.37M13.93 11.57h-2a.39.39 0 0 1-.36-.34V.92a.37.37 0 0 1 .39-.37h1.87a.38.38 0 0 1 .36.35v1.34a2.76 2.76 0 0 1 5.25 0 3 3 0 0 1 5.1-.78c.63.87.5 2.13.5 3.23v6.5a.38.38 0 0 1-.39.38h-2a.39.39 0 0 1-.36-.37V5.73a13.74 13.74 0 0 0-.06-1.93 1.05 1.05 0 0 0-1.18-.89 1.34 1.34 0 0 0-1.2.85 6.12 6.12 0 0 0-.19 2v5.46c0 .21-.17.38-.38.38h-2a.39.39 0 0 1-.36-.37v-5.5c0-1.15.18-2.84-1.24-2.84s-1.39 1.65-1.39 2.84v5.46c0 .21-.17.38-.38.38M51.04.33c3 0 4.59 2.56 4.59 5.81 0 3.25-1.78 5.64-4.59 5.64-2.81 0-4.54-2.56-4.54-5.78S48.13.33 51.04.33m0 2.11c-1.48 0-1.58 2-1.58 3.27s0 4 1.56 4 1.63-2.17 1.63-3.49a9.69 9.69 0 0 0-.3-2.74 1.26 1.26 0 0 0-1.31-1M59.5 11.57h-2a.39.39 0 0 1-.36-.37V.89a.38.38 0 0 1 .36-.34h1.86a.4.4 0 0 1 .36.29v1.57A2.74 2.74 0 0 1 62.5.33a2.63 2.63 0 0 1 2.34 1.22 6.49 6.49 0 0 1 .53 3.21v6.48a.4.4 0 0 1-.39.33h-2a.38.38 0 0 1-.36-.33V5.65c0-1.13.13-2.78-1.25-2.78a1.34 1.34 0 0 0-1.17.82 4.62 4.62 0 0 0-.31 2v5.54a.4.4 0 0 1-.4.38M32.75 6.61a3.9 3.9 0 0 1-.38 2.13 1.63 1.63 0 0 1-1.39.91c-.77 0-1.22-.58-1.22-1.45 0-1.71 1.54-2 3-2l-.01.41zm2.81 1.21V4.69c0-1.33.09-2.54-.89-3.46a4.55 4.55 0 0 0-3-1h-.15c-1.89 0-4 .75-4.41 3.08a.35.35 0 0 0 .3.42l1.95.21a.42.42 0 0 0 .34-.37 1.53 1.53 0 0 1 1.62-1.21c.456-.036.9.16 1.18.52.22.453.303.96.24 1.46v.26a13.87 13.87 0 0 0-3.78.7 3.42 3.42 0 0 0-2.14 3.28 2.85 2.85 0 0 0 3 3.13 4 4 0 0 0 3.31-1.46 4.82 4.82 0 0 0 1.15 1.34.41.41 0 0 0 .47-.05l1.54-1.33a.39.39 0 0 0 0-.53 2.74 2.74 0 0 1-.76-1.86h.03zM6.43 6.61a3.9 3.9 0 0 1-.38 2.13 1.64 1.64 0 0 1-1.39.91c-.77 0-1.22-.58-1.22-1.45 0-1.71 1.53-2 3-2l-.01.41zm2.8 1.21V4.69c0-1.33.1-2.54-.88-3.46a4.56 4.56 0 0 0-2.95-1h-.15C3.36.25 1.28 1 .84 3.31a.35.35 0 0 0 .3.42l1.94.21a.43.43 0 0 0 .35-.37 1.53 1.53 0 0 1 1.62-1.21 1.32 1.32 0 0 1 1.12.52c.223.452.31.96.25 1.46v.26a13.8 13.8 0 0 0-3.78.7A3.4 3.4 0 0 0 .5 8.58a2.85 2.85 0 0 0 3 3.13 4 4 0 0 0 3.31-1.46 4.82 4.82 0 0 0 1.15 1.34.41.41 0 0 0 .47-.05h.07l1.54-1.33a.38.38 0 0 0 0-.53 2.78 2.78 0 0 1-.76-1.86h-.05zM92.83 15.26v-.75c0-.22.1-.37.33-.35a5.27 5.27 0 0 0 1.43 0 1.69 1.69 0 0 0 1.18-1c.33-.75.55-1.36.68-1.76L92.28 1c-.08-.17-.1-.5.26-.5h1.45a.46.46 0 0 1 .51.39l3 8.41 2.87-8.41a.46.46 0 0 1 .45-.35h1.38c.35 0 .33.33.26.5l-4.14 10.67c-.54 1.42-1.25 3.69-2.86 4.08a4.27 4.27 0 0 1-2.43-.12.45.45 0 0 1-.2-.41M88.9 8.88V6.75a11 11 0 0 0-2.28-.27 2.63 2.63 0 0 0-1.86.6 1.73 1.73 0 0 0-.44 1.2 1.62 1.62 0 0 0 .66 1.42 2.66 2.66 0 0 0 2.13.09 4.74 4.74 0 0 0 1.79-.91zm2 2.06a.35.35 0 0 1-.35.35H89.5a.41.41 0 0 1-.41-.35l-.1-.71a5.85 5.85 0 0 1-1.68 1 4.22 4.22 0 0 1-3.81-.18 3 3 0 0 1-1.31-2.61A3.19 3.19 0 0 1 83 6.22 4.11 4.11 0 0 1 86.16 5a9.7 9.7 0 0 1 2.74.36V4c0-1.43-.61-2.06-2.2-2.06a10.73 10.73 0 0 0-3.44.59.31.31 0 0 1-.33-.34v-.84a.5.5 0 0 1 .34-.43 10.14 10.14 0 0 1 3.63-.7c1.82 0 4 .41 4 3.2v7.52zM78.61 5.76a4.65 4.65 0 0 1-1 3.34 2.6 2.6 0 0 1-2 .67 5 5 0 0 1-2.65-1V2.89a4.66 4.66 0 0 1 2.74-1c2.29 0 2.91 1.8 2.91 3.85m2.16.17C80.77 3 79.66.22 76.26.22a5.44 5.44 0 0 0-3.47 1.44l-.11-.75a.4.4 0 0 0-.41-.35h-1a.35.35 0 0 0-.35.35v14.37c0 .193.157.35.35.35h1.33a.35.35 0 0 0 .35-.35v-5a4.82 4.82 0 0 0 3.23 1.23c2.89 0 4.59-2.5 4.59-5.62"/>
    </g>
</svg>
