<?xml version="1.0" encoding="UTF-8"?>
<svg width="54px" height="44px" viewBox="0 0 54 44" version="1.1" xmlns="http://www.w3.org/2000/svg" xmlns:xlink="http://www.w3.org/1999/xlink">
    <!-- Generator: Sketch 50.2 (55047) - http://www.bohemiancoding.com/sketch -->
    <title>luis_sector_agricultural</title>
    <desc>Created with Sketch.</desc>
    <defs></defs>
    <g id="Desktop" stroke="none" stroke-width="1" fill="none" fill-rule="evenodd">
        <g id="Artboard" transform="translate(-2961.000000, -1481.000000)" fill="#1F2A44" fill-rule="nonzero">
            <g id="luis_sector_agricultural" transform="translate(2961.000000, 1481.066667)">
                <path d="M45.1,43.8 C40.5,43.8 36.7,40 36.7,35.4 C36.7,30.7 40.5,27 45.2,27 C47.4,27 49.5,27.9 51.1,29.4 C52.7,31 53.6,33.1 53.6,35.3 C53.6,35.4 53.6,35.5 53.6,35.6 C53.5,40.1 49.7,43.8 45.1,43.8 Z M45.2,28.4 C41.3,28.4 38.2,31.5 38.2,35.3 C38.2,39.1 41.3,42.2 45.1,42.2 C48.9,42.2 52,39.1 52,35.3 C52,35.2 52,35.1 52,35.1 C51.9,33.3 51.2,31.6 49.9,30.4 C48.7,29.1 47,28.4 45.2,28.4 Z M14.1,43.8 C7.9,43.8 2.9,38.8 2.9,32.6 C2.9,26.4 7.9,21.4 14.1,21.4 C20.3,21.4 25.3,26.4 25.3,32.6 C25.3,38.8 20.3,43.8 14.1,43.8 Z M14.1,22.8 C8.7,22.8 4.3,27.2 4.3,32.6 C4.3,38 8.7,42.4 14.1,42.4 C19.5,42.4 23.9,38 23.9,32.6 C23.9,27.2 19.5,22.8 14.1,22.8 Z M45.1,39.6 C42.7,39.6 40.8,37.7 40.8,35.3 C40.8,32.9 42.7,31 45.1,31 C45.1,31 45.1,31 45.1,31 C47.4,31 49.4,32.9 49.4,35.2 C49.4,35.3 49.4,35.4 49.4,35.5 C49.3,37.8 47.4,39.6 45.1,39.6 Z M45.2,32.5 C45.2,32.5 45.1,32.5 45.2,32.5 C43.6,32.5 42.4,33.8 42.4,35.3 C42.4,36.8 43.7,38.1 45.2,38.1 C46.7,38.1 48,36.8 48,35.3 C48,35.2 48,35.2 48,35.1 C47.8,33.6 46.6,32.5 45.2,32.5 Z M14.1,38.1 C11,38.1 8.5,35.6 8.5,32.5 C8.5,29.4 11,26.9 14.1,26.9 C17.2,26.9 19.7,29.4 19.7,32.5 C19.7,35.6 17.2,38.1 14.1,38.1 Z M14.1,28.4 C11.8,28.4 10,30.2 10,32.5 C10,34.8 11.8,36.6 14.1,36.6 C16.4,36.6 18.2,34.8 18.2,32.5 C18.2,30.2 16.3,28.4 14.1,28.4 Z M33.9,37.3 L27,37.3 C26.6,37.3 26.2,37 26.2,36.5 C26.2,36 26.5,35.7 27,35.7 L33.1,35.7 C33.1,35.5 33.1,35.4 33.1,35.2 C33.1,31.5 34.7,28.1 37.5,25.9 L31,25.9 C30.6,25.9 30.2,25.6 30.2,25.1 C30.2,24.6 30.5,24.3 31,24.3 L39.9,24.3 C40,24.3 40.1,24.3 40.2,24.3 L49.7,24.3 L49.7,18.6 C49.7,14.7 47.6,14.5 44,14.5 L32.2,14.5 C31.9,14.5 31.6,14.3 31.5,14 L28.7,4.3 C28.6,4.1 28.7,3.8 28.8,3.6 C28.9,3.4 29.2,3.3 29.4,3.3 L31.8,3.3 C31.5,2.3 30.6,1.5 29.4,1.6 L11.5,1.6 C10.9,1.6 10.3,1.9 9.8,2.3 C9.5,2.6 9.3,2.9 9.2,3.3 L11.6,3.3 C11.8,3.3 12.1,3.4 12.2,3.6 C12.3,3.8 12.4,4 12.3,4.3 L8.7,17.3 C9.3,17.1 10,16.9 10.7,16.7 C19.4,14.8 28,20.4 29.8,29 C29.9,29.4 29.6,29.8 29.2,29.9 C28.8,30 28.4,29.7 28.3,29.3 C26.6,21.4 18.8,16.4 11,18.1 C7.4,18.9 4.2,21 2.1,24 L2.9,24.7 C3.2,25 3.2,25.5 2.9,25.8 C2.6,26.1 2.1,26.1 1.8,25.8 L0.5,24.6 C0.2,24.4 0.2,23.9 0.4,23.6 C2,21.1 4.2,19.2 6.8,17.9 L10.7,5 L8.4,5 C8,5 7.7,4.7 7.7,4.2 C7.7,2 9.4,0.3 11.5,0.2 L29.4,0.2 C31.5,0.2 33.3,1.9 33.4,4 L33.4,4.2 C33.4,4.6 33.1,4.9 32.6,4.9 L30.4,4.9 L32.7,13.1 L44,13.1 C47.2,13.1 51.2,13.1 51.2,18.7 L51.2,25.2 C51.2,25.6 50.9,26 50.4,26 L40.2,26 C36.7,27.8 34.6,31.4 34.6,35.3 C34.6,35.5 34.6,35.7 34.6,35.9 C34.6,36.1 34.6,36.3 34.6,36.6 C34.6,37 34.3,37.3 33.9,37.3 Z M28.6,16.3 L24.6,16.3 C24.5,16.3 24.4,16.3 24.4,16.3 L14.6,13 C14.3,12.9 14.1,12.6 14.1,12.3 L14.1,5.9 C14.1,4.6 15.2,3.5 16.5,3.5 L24.6,3.5 C25.7,3.5 26.5,4.2 26.9,5.6 L29.3,15.3 C29.4,15.5 29.3,15.8 29.2,15.9 C29,16.2 28.8,16.3 28.6,16.3 Z M24.7,14.8 L27.6,14.8 L25.5,6 C25.2,5 24.8,5 24.6,5 L16.5,5 C16,5 15.6,5.4 15.6,5.9 L15.6,11.8 L24.7,14.8 Z" id="Shape"></path>
            </g>
        </g>
    </g>
</svg>