<?xml version="1.0" encoding="UTF-8"?>
<svg width="75px" height="60px" viewBox="0 0 75 60" version="1.1" xmlns="http://www.w3.org/2000/svg" xmlns:xlink="http://www.w3.org/1999/xlink">
    <!-- Generator: Sketch 50.2 (55047) - http://www.bohemiancoding.com/sketch -->
    <title>luis_sector_construction white</title>
    <desc>Created with Sketch.</desc>
    <defs></defs>
    <g id="Desktop" stroke="none" stroke-width="1" fill="none" fill-rule="evenodd">
        <g id="Artboard" transform="translate(-4498.000000, -1468.000000)" fill="#FFFFFF" fill-rule="nonzero">
            <g id="luis_sector_construction-white" transform="translate(4498.000000, 1468.000000)">
                <path d="M43,60 C42.9,60 42.8,60 42.6,60 L7,60 C6.9,60 6.8,60 6.6,60 C3.1,60 0.3,57.2 0.3,53.7 C0.3,50.2 3.1,47.4 6.6,47.4 C6.6,47.4 6.6,47.4 6.6,47.4 L11.4,47.4 L11.4,44.2 L9,44.2 C6.9,44.2 5.1,42.5 5.1,40.3 L5.1,32.4 C5.1,30.2 6.9,28.5 9,28.5 L28.1,28.5 L28.1,25.3 C28.1,24 29.2,23 30.4,23 L32.1,23 L33.6,16.4 C33.7,16.2 33.8,16 34,15.9 L55.8,6.1 L55.8,2.3 C55.9,1 56.9,0 58.2,0 L59.6,0 C61.4,0 61.8,1.5 61.9,2.1 L71.3,40.5 C73.7,41.3 74.5,44.4 74.5,46.6 C74.5,48.5 73.7,50.3 72.4,51.6 C71.1,52.9 69.3,53.7 67.4,53.7 C67.4,53.7 67.4,53.7 67.3,53.7 L58,53.7 C57.6,53.7 57.2,53.4 57.2,52.9 C57.2,52.4 57.5,52.1 58,52.1 L59.2,52.1 C59.2,52 59.2,51.9 59.2,51.8 L63,40.8 C63.1,40.5 63.4,40.3 63.7,40.3 L65.7,40.3 L56.7,12.6 L40.6,21 L39.5,26.6 C39.8,27.6 40.3,29 41,31.1 C43,37.2 43,37.8 43,38.1 L43,40.4 C43,42.6 41.2,44.3 39.1,44.3 L36.7,44.3 L36.7,47.5 L43,47.5 C43,47.5 43,47.5 43,47.5 C46.5,47.5 49.3,50.3 49.3,53.8 C49.3,53.8 49.3,53.8 49.3,53.8 C49.3,57.2 46.5,60 43,60 Z M42.7,58.5 L43,58.5 C43,58.5 43.1,58.5 43.1,58.5 C45.7,58.5 47.8,56.3 47.8,53.7 C47.8,51.1 45.6,48.9 43,48.9 C43,48.9 43,48.9 43,48.9 C40.4,48.9 38.2,51.1 38.2,53.7 C38.2,55 38.7,56.2 39.6,57.1 C40.5,57.9 41.6,58.4 42.7,58.5 Z M6.7,48.9 C4.1,48.9 1.9,51 1.9,53.7 C1.9,56.3 4,58.4 6.6,58.5 C6.6,58.5 6.7,58.5 6.7,58.5 L7,58.5 C9.5,58.3 11.5,56.3 11.5,53.7 C11.5,51.1 9.3,48.9 6.7,48.9 Z M10.7,58.5 L38.9,58.5 C38.8,58.4 38.7,58.3 38.5,58.2 C37.3,57 36.7,55.4 36.7,53.8 C36.7,51.9 37.6,50.2 38.9,49 L10.7,49 C12.1,50.2 12.9,51.9 12.9,53.8 C13,55.6 12.1,57.3 10.7,58.5 Z M67.4,52.2 C67.4,52.2 67.4,52.2 67.4,52.2 C69,52.2 70.4,51.6 71.4,50.6 C72.5,49.5 73,48.1 73.1,46.6 C73.1,45.4 72.6,41.8 70.2,41.8 L64.3,41.8 L60.8,52.2 L67.4,52.2 C67.4,52.2 67.4,52.2 67.4,52.2 Z M13,47.4 L35.2,47.4 L35.2,44.2 L22.9,44.2 C22.5,44.2 22.1,43.9 22.1,43.4 C22.1,42.9 22.4,42.6 22.9,42.6 L39.1,42.6 C40.4,42.6 41.5,41.5 41.5,40.2 L41.5,38.6 L35.1,38.6 C34,38.6 28.1,34.5 28.1,33.1 L28.1,30 L9,30 C7.7,30 6.6,31.1 6.6,32.4 L6.6,40.3 C6.6,41.6 7.7,42.7 9,42.7 L16.1,42.7 C16.5,42.7 16.9,43 16.9,43.5 C16.9,44 16.6,44.3 16.1,44.3 L13,44.3 L13,47.4 Z M67.3,40.3 L69.7,40.3 L60.5,2.5 C60.3,1.6 60.1,1.5 59.6,1.5 L58.2,1.5 C57.7,1.5 57.4,1.9 57.4,2.3 L57.4,5.7 C57.7,5.7 58.1,5.8 58.4,5.9 C59.2,6.2 59.8,6.8 60.2,7.5 C60.6,8.3 60.6,9.1 60.3,9.9 C60,10.7 59.4,11.3 58.7,11.7 L58.2,12 L67.3,40.3 Z M29.6,33.1 C30.1,34 34.3,37 35.2,37.2 L41.3,37.2 C40.6,34.5 37.8,26.4 37.6,25.6 C37.6,25.6 37.6,25.6 37.6,25.5 C37.3,24.4 36.9,24.4 36.7,24.4 L30.5,24.4 C30,24.4 29.7,24.8 29.7,25.2 L29.7,29.1 C29.7,29.1 29.7,29.1 29.7,29.1 C29.7,29.1 29.7,29.1 29.7,29.1 L29.7,33.1 L29.6,33.1 Z M33.7,23 L36.7,23 C37.4,23 38,23.3 38.5,24 L39.2,20.4 C39.2,20.2 39.4,20 39.6,19.9 L58,10.4 C58.4,10.2 58.7,9.9 58.9,9.5 C59.1,9.1 59,8.7 58.8,8.3 C58.6,7.9 58.3,7.6 57.9,7.5 C57.5,7.4 57.1,7.4 56.7,7.6 L35,17.1 L33.7,23 Z M34.9,54.5 L15.4,54.5 C15,54.5 14.6,54.2 14.6,53.7 C14.6,53.2 15,53 15.4,53 L34.9,53 C35.3,53 35.7,53.3 35.7,53.8 C35.7,54.3 35.3,54.5 34.9,54.5 Z" id="Shape"></path>
            </g>
        </g>
    </g>
</svg>