<?xml version="1.0" encoding="UTF-8"?>
<svg width="85px" height="39px" viewBox="0 0 85 39" version="1.1" xmlns="http://www.w3.org/2000/svg" xmlns:xlink="http://www.w3.org/1999/xlink">
    <!-- Generator: Sketch 50.2 (55047) - http://www.bohemiancoding.com/sketch -->
    <title>luis_sector_logistics white</title>
    <desc>Created with Sketch.</desc>
    <defs></defs>
    <g id="Desktop" stroke="none" stroke-width="1" fill="none" fill-rule="evenodd">
        <g id="Artboard" transform="translate(-4492.000000, -1727.000000)" fill="#FFFFFF" fill-rule="nonzero">
            <g id="luis_sector_logistics-white" transform="translate(4492.000000, 1727.000000)">
                <g id="luis_sector_nautic-copy" transform="translate(0.720000, 0.150000)">
                    <path d="M74.0451863,38.7 L2.99374069,38.7 C0.997913562,38.7 0,36.6110795 0,34.5221591 L0,25.396875 C0,24.9571023 0.299374069,24.6272727 0.698539493,24.6272727 C0.698539493,24.6272727 4.0914456,24.5173295 8.78163934,24.2974432 L14.6693294,4.8375 L12.6735022,4.8375 C12.2743368,4.8375 11.9749627,4.50767045 11.8751714,4.06789773 C11.8751714,2.96846591 12.1745455,1.97897727 12.8730849,1.209375 C13.5716244,0.439772727 14.4697466,0 15.4676602,0 L45.5048584,0 C46.4029806,0 47.4008942,0.329829545 48.0994337,1.09943182 C48.9975559,1.86903409 49.3967213,2.85852273 49.3967213,3.95795455 L49.3967213,4.17784091 C49.3967213,4.61761364 49.0973472,4.94744318 48.5983905,4.94744318 L46.6025633,4.94744318 L48.6981818,13.1931818 L56.0827422,13.1931818 C58.9766915,13.1931818 63.7666766,13.1931818 67.0597914,19.7897727 L83.0264083,19.7897727 C83.3257824,19.7897727 83.5253651,19.8997159 83.6251565,20.2295455 C83.7249478,20.4494318 83.7249478,20.7792614 83.6251565,20.9991477 L74.6439344,38.3701705 C74.6439344,38.5900568 74.3445604,38.7 74.0451863,38.7 Z M1.49687034,26.2764205 L1.49687034,34.5221591 C1.49687034,35.5116477 1.89603577,36.9409091 2.99374069,36.9409091 L73.6460209,36.9409091 L81.8289121,21.4389205 L66.6606259,21.4389205 C66.6606259,21.4389205 66.6606259,21.4389205 66.6606259,21.4389205 L46.0038152,21.4389205 C45.3052757,22.3184659 43.1098659,24.5173295 38.2200894,24.7372159 C34.1286438,24.8471591 6.3866468,26.0565341 1.49687034,26.2764205 Z M13.5716244,3.29829545 L15.6672429,3.29829545 C15.8668256,3.29829545 16.1661997,3.40823864 16.2659911,3.628125 C16.3657824,3.84801136 16.4655738,4.06789773 16.3657824,4.39772727 L10.378301,24.2974432 C20.457228,23.8576705 35.2263487,23.1980114 38.1202981,23.0880682 C43.4092399,22.8681818 45.0059016,20.2295455 45.0059016,20.1196023 C45.105693,19.8997159 45.4050671,19.7897727 45.6046498,19.7897727 L65.2635469,19.7897727 C62.469389,14.8423295 58.7771088,14.8423295 56.0827422,14.8423295 L48.199225,14.8423295 C48.199225,14.8423295 48.199225,14.8423295 48.199225,14.8423295 L32.1328167,14.8423295 C31.7336513,14.8423295 31.3344858,14.5125 31.3344858,13.9627841 L31.3344858,5.71704545 C31.3344858,4.39772727 32.3323994,3.29829545 33.5298957,3.29829545 L41.0142474,3.29829545 C42.1119523,3.29829545 42.8104918,4.06789773 43.2096572,5.49715909 L45.0059016,13.1931818 L47.1015201,13.1931818 L44.8063189,4.39772727 C44.7065276,4.17784091 44.8063189,3.84801136 44.9061103,3.628125 C45.0059016,3.40823864 45.3052757,3.29829545 45.5048584,3.29829545 L47.6004769,3.29829545 C47.5006855,2.96846591 47.3011028,2.63863636 47.0017288,2.30880682 C46.6025633,1.86903409 46.0038152,1.64914773 45.4050671,1.64914773 L15.4676602,1.64914773 C15.4676602,1.64914773 15.3678689,1.64914773 15.3678689,1.64914773 C15.3678689,1.64914773 15.3678689,1.64914773 15.3678689,1.64914773 C14.7691207,1.64914773 14.2701639,1.97897727 13.8709985,2.41875 C13.8709985,2.63863636 13.6714158,2.96846591 13.5716244,3.29829545 Z M32.9311475,13.1931818 L43.6088227,13.1931818 L41.9123696,5.93693182 C41.6129955,4.94744318 41.3136215,4.94744318 41.1140387,4.94744318 L33.629687,4.94744318 C33.2305216,4.94744318 32.8313562,5.27727273 32.8313562,5.82698864 L32.8313562,13.1931818 L32.9311475,13.1931818 Z M64.3654247,32.1034091 C62.2698063,32.1034091 60.5733532,30.234375 60.5733532,27.9255682 C60.5733532,25.6167614 62.2698063,23.7477273 64.3654247,23.7477273 C66.4610432,23.7477273 68.1574963,25.6167614 68.1574963,27.9255682 C68.1574963,30.234375 66.4610432,32.1034091 64.3654247,32.1034091 Z M64.3654247,25.5068182 C63.1679285,25.5068182 62.1700149,26.60625 62.1700149,27.9255682 C62.1700149,29.2448864 63.1679285,30.3443182 64.3654247,30.3443182 C65.562921,30.3443182 66.5608346,29.2448864 66.5608346,27.9255682 C66.5608346,26.60625 65.562921,25.5068182 64.3654247,25.5068182 Z M55.3842027,32.1034091 C53.2885842,32.1034091 51.5921311,30.234375 51.5921311,27.9255682 C51.5921311,25.6167614 53.2885842,23.7477273 55.3842027,23.7477273 C57.4798212,23.7477273 59.1762742,25.6167614 59.1762742,27.9255682 C59.1762742,30.234375 57.4798212,32.1034091 55.3842027,32.1034091 Z M55.3842027,25.5068182 C54.1867064,25.5068182 53.1887928,26.60625 53.1887928,27.9255682 C53.1887928,29.2448864 54.1867064,30.3443182 55.3842027,30.3443182 C56.581699,30.3443182 57.5796125,29.2448864 57.5796125,27.9255682 C57.5796125,26.60625 56.581699,25.5068182 55.3842027,25.5068182 Z M39.7169598,19.7897727 L15.7670343,19.7897727 C15.3678689,19.7897727 14.9687034,19.4599432 14.9687034,18.9102273 C14.9687034,18.3605114 15.2680775,18.0306818 15.7670343,18.0306818 L39.7169598,18.0306818 C40.1161252,18.0306818 40.5152906,18.3605114 40.5152906,18.9102273 C40.5152906,19.4599432 40.1161252,19.7897727 39.7169598,19.7897727 Z M28.4405365,14.8423295 L16.4655738,14.8423295 C16.2659911,14.8423295 15.966617,14.7323864 15.8668256,14.5125 C15.7670343,14.2926136 15.6672429,14.0727273 15.7670343,13.7428977 L17.8626528,5.49715909 C18.3616095,3.95795455 19.1599404,3.29829545 20.2576453,3.29829545 L26.9436662,3.29829545 C28.1411624,3.29829545 29.2388674,4.28778409 29.3386587,5.71704545 L29.3386587,13.9627841 C29.139076,14.4025568 28.8397019,14.8423295 28.4405365,14.8423295 Z M17.4634873,13.1931818 L27.741997,13.1931818 L27.741997,5.71704545 C27.741997,5.27727273 27.3428316,4.8375 26.8438748,4.8375 L20.1578539,4.8375 C19.8584799,4.8375 19.5591058,4.94744318 19.2597317,5.93693182 L17.4634873,13.1931818 Z" id="Shape"></path>
                </g>
            </g>
        </g>
    </g>
</svg>