<?xml version="1.0" encoding="UTF-8"?>
<svg width="59px" height="42px" viewBox="0 0 59 42" version="1.1" xmlns="http://www.w3.org/2000/svg" xmlns:xlink="http://www.w3.org/1999/xlink">
    <!-- Generator: Sketch 50.2 (55047) - http://www.bohemiancoding.com/sketch -->
    <title>luis_benefits_24-delivery_rollover blue</title>
    <desc>Created with Sketch.</desc>
    <defs></defs>
    <g id="Desktop" stroke="none" stroke-width="1" fill="none" fill-rule="evenodd">
        <g id="luis_benefits_24-delivery_rollover-blue">
            <path d="M26.65,35.8641238 L44.02,35.8641238" id="Shape" stroke="#1F2A44" stroke-width="1.8"></path>
            <path d="M54,35.8641238 L55.49,35.8641238 C56.1795645,35.8614742 56.839834,35.5847412 57.3255544,35.094804 C57.8112747,34.6048668 58.0826573,33.9418592 58.08,33.2516381 L58.08,23.9527905 C58.0791949,23.558078 57.9413256,23.1759225 57.69,22.8717619 L49,12.632019 C47.86,11.2306857 46.59,10.0095238 45.16,10.0095238 L39.16,10.0095238" id="Shape" stroke="#1F2A44" stroke-width="1.8"></path>
            <path d="M13.42,5.30504762 L5.17,5.30504762" id="Shape" stroke="#1F2A44" stroke-width="1.8"></path>
            <path d="M8.25,26.3350571 L0,26.3350571" id="Shape" stroke="#1F2A44" stroke-width="1.8"></path>
            <path d="M12.13,36.0743238 L7.76,36.0743238" id="Shape" stroke="#1F2A44" stroke-width="1.8"></path>
            <polyline id="Shape" stroke="#1F2A44" stroke-width="1.8" points="11.06 0.900857143 39.12 0.900857143 39.12 35.8641238"></polyline>
            <path d="M22.15,36.0342857 C22.1114685,38.7888888 19.8561187,40.9943871 17.1039858,40.9687645 C14.351853,40.9431418 12.1378786,38.6960337 12.150543,35.9411898 C12.1632074,33.1863459 14.3977481,30.9597271 17.15,30.9594571 C18.4883003,30.9593259 19.7707943,31.496219 20.7105146,32.450003 C21.6502349,33.4037869 22.1687362,34.6948421 22.15,36.0342857 Z" id="Shape" stroke="#1F2A44" stroke-width="1.8"></path>
            <path d="M54.05,36.0342857 C54.0498623,38.791794 51.8213699,41.0296702 49.0665003,41.0387701 C46.3116306,41.04787 44.0684307,38.8247648 44.0501106,36.0673174 C44.0317904,33.3098701 46.2452531,31.0570989 49,31.0295238 C50.3347244,31.0161632 51.6193768,31.537545 52.5679007,32.4775719 C53.5164245,33.4175989 54.0500667,34.6982233 54.05,36.0342857 Z" id="Shape" stroke="#1F2A44" stroke-width="1.8"></path>
            <path d="M3.45,19.1682381 L6.65,15.8450762 C7.8,14.6539429 8.22,14.0133333 8.22,13.2526095 C8.24088709,12.899733 8.10923183,12.5548943 7.85855577,12.3058949 C7.60787971,12.0568954 7.26237037,11.9277611 6.91,11.9513714 C6.15,11.9513714 5.63,12.3917905 4.91,13.2526095 L3.47,11.8612857 C4.24303446,10.6103601 5.61052156,9.85202797 7.08,9.85938095 C7.97297594,9.76931585 8.8612875,10.0697837 9.51664281,10.6835656 C10.1719981,11.2973476 10.5304945,12.1645947 10.5,13.0624286 C10.5,14.5938857 9.8,15.4747238 8.19,17.0662381 L6.37,19.0180952 L10.51,19.0180952 L10.51,21.02 L3.45,21.02 L3.45,19.1682381 Z" id="Shape" fill="#1F2A44" fill-rule="nonzero"></path>
            <path d="M16.37,16.8460286 L16.37,13.3026571 L13.89,16.8460286 L16.37,16.8460286 Z M16.37,18.7478381 L11.7,18.7478381 L11.42,17.0962667 L16.52,10.0095238 L18.52,10.0095238 L18.52,16.8960762 L19.83,16.8960762 L19.83,18.7978857 L18.5,18.7978857 L18.5,21.02 L16.37,21.02 L16.37,18.7478381 Z" id="Shape" fill="#1F2A44" fill-rule="nonzero"></path>
            <path d="M22.69,9.67920952 L24.89,9.67920952 L24.89,13.683019 C25.3360667,12.9364139 26.1313122,12.4686208 27,12.4418381 C28.55,12.4418381 29.45,13.5428857 29.45,15.2845429 L29.45,21.02 L27.25,21.02 L27.25,15.9351619 C27.25,14.9342095 26.82,14.4437429 26.07,14.4437429 C25.32,14.4437429 24.86,14.9542286 24.86,15.9351619 L24.86,21.02 L22.66,21.02 L22.69,9.67920952 Z" id="Shape" fill="#1F2A44" fill-rule="nonzero"></path>
            <path d="M45.17,10.0095238 L43.3999756,10.0095238 L43.4,18.8779619 C43.3944437,20.0515744 44.3375426,21.0089932 45.51,21.02 L56.14,21.02 L49.05,12.632019 C47.87,11.2306857 46.59,10.0095238 45.17,10.0095238 Z" id="Shape" stroke="#1F2A44" stroke-width="1.8"></path>
        </g>
    </g>
</svg>