<?xml version="1.0" encoding="UTF-8"?>
<svg width="44px" height="45px" viewBox="0 0 44 45" version="1.1" xmlns="http://www.w3.org/2000/svg" xmlns:xlink="http://www.w3.org/1999/xlink">
    <!-- Generator: Sketch 50.2 (55047) - http://www.bohemiancoding.com/sketch -->
    <title>luis_benefits_assembly blue</title>
    <desc>Created with Sketch.</desc>
    <defs></defs>
    <g id="Desktop" stroke="none" stroke-width="1" fill="none" fill-rule="evenodd">
        <g id="luis_benefits_assembly-blue" transform="translate(0.000000, -1.000000)" fill="#1F2A44" fill-rule="nonzero">
            <path d="M42.39,9.72925714 L41.55,10.5700571 L36.55,15.574819 C34.5787386,17.3934828 31.5252907,17.3323339 29.628281,15.4362032 C27.7312713,13.5400726 27.6658586,10.4838063 29.48,8.50809524 L34.48,3.50333333 L35.36,2.62249524 C33.554585,1.60916625 31.5292393,1.05252475 29.46,1.00095238 C27.3123743,0.938549566 25.2322038,1.75550492 23.7,3.26310476 L18.34,8.75833333 C14.81,12.5619524 15.74,16.4656667 18.13,19.989019 L1.76,34.7931048 C0.0462375789,36.5106335 -0.466065563,39.0919316 0.46170419,41.334717 C1.38947394,43.5775025 3.57486676,45.040722 6,45.0428571 C7.59208665,45.0481252 9.1196453,44.4134404 10.24,43.281181 L25.15,26.7954952 C27.3342981,28.0458053 29.7634036,28.8073312 32.27,29.027619 C33.8323534,29.021291 35.3284122,28.3949397 36.43,27.2859619 L41.79,21.7907333 C44.58,18.938019 44.67,14.1134286 42.39,9.72925714 Z M40.39,20.3793905 L35.03,25.874619 C34.2957319,26.5986274 33.3105941,27.0109865 32.28,27.0257143 C29.8617878,26.7658929 27.5336561,25.9617343 25.47,24.6734762 C25.3179152,24.5652884 25.1365616,24.5059433 24.95,24.5033143 C24.6280336,24.5125907 24.3302425,24.6765318 24.15,24.9437333 L8.83,41.8698381 C7.26703416,43.4342925 4.73296584,43.4342925 3.17,41.8698381 C1.60703416,40.3053837 1.60703416,37.768902 3.17,36.2044476 L20,21.02 C20.2669473,20.8395858 20.4307325,20.5415111 20.44,20.2192381 C20.4378614,20.0122116 20.3675633,19.8116712 20.24,19.6486952 C17.35,15.8050381 17.24,12.9423143 19.74,10.2297333 L25.08,4.76453333 C26.2382101,3.60296728 27.8208556,2.96641274 29.46,3.00285714 C30.2431552,3.01017085 31.0224015,3.11439345 31.78,3.31315238 L28.05,7.06672381 C26.27439,8.83508469 25.5761703,11.4172964 26.2183536,13.8406647 C26.860537,16.2640331 28.7455603,18.1603907 31.1633537,18.8153981 C33.581147,19.4704055 36.16439,18.7845514 37.94,17.0161905 L41.66,13.2926476 C42.42,16.0152381 42.07,18.6777714 40.41,20.3793905 L40.39,20.3793905 Z" id="Shape"></path>
            <ellipse id="Oval" cx="5.81" cy="39.1472476" rx="1" ry="1"></ellipse>
        </g>
    </g>
</svg>