<?xml version="1.0" encoding="UTF-8"?>
<svg width="99px" height="41px" viewBox="0 0 99 41" version="1.1" xmlns="http://www.w3.org/2000/svg" xmlns:xlink="http://www.w3.org/1999/xlink">
    <!-- Generator: Sketch 50.2 (55047) - http://www.bohemiancoding.com/sketch -->
    <title>luis_sector_passenger-services</title>
    <desc>Created with Sketch.</desc>
    <defs></defs>
    <g id="Desktop" stroke="none" stroke-width="1" fill="none" fill-rule="evenodd">
        <g id="Artboard" transform="translate(-2942.000000, -1604.000000)" fill="#1F2A44" fill-rule="nonzero">
            <g id="luis_sector_passenger-services" transform="translate(2941.908333, 1603.833333)">
                <path d="M79.2,40.8 C75.5,40.8 72.4,37.8 72.4,34 C72.4,30.2 75.4,27.2 79.2,27.2 C83,27.2 86,30.2 86,34 C86,37.8 82.9,40.8 79.2,40.8 Z M79.2,28.8 C76.3,28.8 74,31.2 74,34 C74,36.8 76.4,39.2 79.2,39.2 C82,39.2 84.4,36.8 84.4,34 C84.4,31.2 82.1,28.8 79.2,28.8 Z M28.2,40.8 C24.5,40.8 21.4,37.8 21.4,34 C21.4,30.2 24.4,27.2 28.2,27.2 C32,27.2 35,30.2 35,34 C35,37.8 31.9,40.8 28.2,40.8 Z M28.2,28.8 C25.3,28.8 23,31.2 23,34 C23,36.8 25.4,39.2 28.2,39.2 C31,39.2 33.4,36.8 33.4,34 C33.4,31.2 31.1,28.8 28.2,28.8 Z M95.5,34.8 L88.2,34.8 C87.8,34.8 87.4,34.5 87.4,34 C87.4,33.5 87.7,33.2 88.2,33.2 L95.5,33.2 C96.3,33.2 97,32.5 97,31.7 C97,30.9 96.3,30.2 95.5,30.2 L86.7,30.2 C86.3,30.2 85.9,29.9 85.9,29.4 C85.9,28.9 86.2,28.6 86.7,28.6 L95,28.6 L95,22.3 C93.7,22.1 89.9,21.4 88.8,21.1 C87.5,20.8 86.7,19.9 86.7,18.9 L86.7,5.5 C86.7,4.3 87.7,3.3 88.9,3.3 L90.7,3.3 C90.2,2.2 89.9,1.8 89.3,1.8 L83.5,1.8 C83.6,2 83.6,2.3 83.6,2.5 L83.6,15.3 C83.6,16.5 82.6,17.5 81.4,17.5 L9.4,17.5 C8.2,17.5 7.2,16.5 7.2,15.3 L7.2,2.5 C7.2,2.2 7.2,2 7.3,1.7 L5,1.7 C4.6,1.7 4.2,2 4.2,2.4 L4.2,28.7 L10.2,28.7 C10.6,28.7 11,29 11,29.5 C11,30 10.7,30.3 10.2,30.3 L3.5,30.3 C2.7,30.3 2,31 2,31.8 C2,32.6 2.7,33.3 3.5,33.3 L19.2,33.3 C19.6,33.3 20,33.6 20,34.1 C20,34.6 19.7,34.9 19.2,34.9 L3.5,34.9 C1.8,34.9 0.5,33.6 0.5,31.9 C0.5,30.5 1.5,29.3 2.7,29 L2.7,2.5 C2.7,1.3 3.7,0.3 4.9,0.2 L81.4,0.2 C81.4,0.2 81.5,0.2 81.5,0.2 L89.3,0.2 C91.1,0.2 91.7,1.7 92.2,2.9 C92.2,3 92.3,3.2 92.4,3.6 C92.4,3.7 92.4,3.7 92.5,3.8 C93.5,6.8 96.4,16.6 96.4,21.2 L96.4,28.9 C97.6,29.3 98.4,30.4 98.4,31.7 C98.5,33.4 97.2,34.8 95.5,34.8 Z M89,4.8 C88.6,4.8 88.2,5.1 88.2,5.6 L88.2,19 C88.2,19.5 88.8,19.7 89.1,19.8 C90,20 93.4,20.7 94.9,20.9 C94.8,16.6 92.3,8 91.3,4.8 L89,4.8 Z M65.8,16 L81.6,16 C82,16 82.4,15.7 82.4,15.2 L82.4,2.5 C82.4,2.3 82.3,2.1 82.2,2 C82.1,1.9 81.9,1.8 81.7,1.8 L65.8,1.8 L65.8,16 Z M46.2,16 L64.2,16 L64.2,1.8 L46.2,1.8 L46.2,16 Z M26.8,16 L44.8,16 L44.8,1.8 L26.8,1.8 L26.8,16 Z M9.5,1.8 C9.1,1.8 8.8,2.1 8.8,2.6 L8.8,15.4 C8.8,15.8 9.1,16.2 9.6,16.2 L25.4,16.2 L25.4,1.8 L9.5,1.8 Z M70.2,34.8 L37.2,34.8 C36.8,34.8 36.4,34.5 36.4,34 C36.4,33.5 36.7,33.2 37.2,33.2 L70.2,33.2 C70.6,33.2 71,33.5 71,34 C71,34.5 70.6,34.8 70.2,34.8 Z" id="Shape"></path>
            </g>
        </g>
    </g>
</svg>