<?xml version="1.0" encoding="UTF-8"?>
<svg width="52px" height="56px" viewBox="0 0 52 56" version="1.1" xmlns="http://www.w3.org/2000/svg" xmlns:xlink="http://www.w3.org/1999/xlink">
    <!-- Generator: Sketch 50.2 (55047) - http://www.bohemiancoding.com/sketch -->
    <title>luis_benefits_innovation blue</title>
    <desc>Created with Sketch.</desc>
    <defs></defs>
    <g id="Desktop" stroke="none" stroke-width="1" fill="none" fill-rule="evenodd" stroke-linecap="round">
        <g id="luis_benefits_innovation-blue" transform="translate(1.000000, 1.000000)" stroke="#1F2A44" stroke-width="2">
            <path d="M26.91,45.2830857 L19.21,45.2830857 L26.91,45.2830857 Z M31.39,41.4794667 L23.69,41.4794667 L31.39,41.4794667 Z M12.11,26.084819 C12.1338107,19.8565031 16.5061825,14.4933454 22.5973925,13.2209681 C28.6886024,11.9485908 34.8390271,15.1136685 37.3495499,20.812594 C39.8600728,26.5115195 38.0466716,33.1915523 33,36.8350476 C31.9987305,37.5972156 31.404674,38.7790737 31.39,40.0380952 L31.39,47.5052 C31.3900152,48.5018915 30.5857279,49.3114172 29.59,49.3169238 L21,49.3169238 C20.0042721,49.3114172 19.1999848,48.5018915 19.2,47.5052 L19.2,40.0881429 C19.1985951,38.8143104 18.6077355,37.6129839 17.6,36.8350476 C14.1508572,34.3425554 12.108317,30.3429608 12.11,26.084819 Z M29.42,49.3269333 L28.58,51.2387524 C28.14,52.2397048 27.77,53.0504762 26.78,53.0504762 L23.78,53.0504762 C22.78,53.0504762 22.38,52.149619 21.98,51.2387524 C21.79,50.7983333 21.47,50.0776476 21.13,49.3269333 L29.42,49.3269333 Z" id="Shape" stroke-linejoin="round"></path>
            <path d="M42.68,7.357 L37.89,12.171581 M25,0 L25,6.80647619 M7.32,7.357 L12.11,12.171581 M0,25.1339143 L6.77,25.1339143 M43.23,25.1339143 L50,25.1339143" id="Shape"></path>
        </g>
    </g>
</svg>