<?xml version="1.0" encoding="UTF-8"?>
<svg width="46px" height="47px" viewBox="0 0 46 47" version="1.1" xmlns="http://www.w3.org/2000/svg" xmlns:xlink="http://www.w3.org/1999/xlink">
    <!-- Generator: Sketch 50.2 (55047) - http://www.bohemiancoding.com/sketch -->
    <title>luis_benefits_deductibles orange</title>
    <desc>Created with Sketch.</desc>
    <defs></defs>
    <g id="Desktop" stroke="none" stroke-width="1" fill="none" fill-rule="evenodd">
        <g id="luis_benefits_deductibles-orange" fill="#EE7302" fill-rule="nonzero">
            <path d="M27.18,-1.69406589e-21 C21.3550738,-0.00361708801 15.8596611,2.70416582 12.31,7.32697143 C13.4828343,6.94533641 14.6877392,6.67062448 15.91,6.50619048 C22.5067569,0.510199811 32.6445521,0.754521266 38.9453744,7.06134434 C45.2461966,13.3681674 45.4902856,23.5156177 39.5,30.1186571 C39.3357225,31.342082 39.0612719,32.5481344 38.68,33.7220857 C45.0563248,28.8025179 47.5954888,20.3651449 44.9947477,12.7388482 C42.3940067,5.11255154 35.2306855,-0.00974730965 27.18,-2.08920846e-15 M18.82,43.9418095 C12.0564827,43.9458585 5.95669561,39.8708498 3.36560618,33.6173852 C0.774516759,27.3639207 2.20253959,20.1638603 6.98363856,15.375344 C11.7647375,10.5868276 18.9570916,9.1531375 25.2061551,11.7429529 C31.4552187,14.3327684 35.5299988,20.4359258 35.53,27.2058857 C35.5244907,36.4426888 28.0480095,43.930769 18.82,43.9418095 M18.82,8.3679619 C8.42600101,8.3679619 2.33604688e-15,16.8019877 -3.55271368e-15,27.2058857 C-9.44147424e-15,37.6097838 8.42600101,46.0438095 18.82,46.0438095 C29.213999,46.0438095 37.64,37.6097838 37.64,27.2058857 C37.6344828,16.804276 29.2117128,8.3734844 18.82,8.3679619" id="Shape"></path>
            <path d="M21.43,24.0228571 C20.9855297,23.2724957 20.1814739,22.8093437 19.31,22.8016952 C18.22,22.8016952 17.31,23.6224762 16.93,25.033819 L20.18,25.033819 L20.18,26.4251429 L16.67,26.4251429 C16.67,26.6553619 16.67,26.8955905 16.67,27.135819 L16.67,27.2559333 C16.67,27.4861524 16.67,27.6963524 16.67,27.9065524 L20.18,27.9065524 L20.18,29.3279048 L16.91,29.3279048 C17.33,30.8393429 18.23,31.6401048 19.38,31.6401048 C20.2647492,31.6056227 21.0711497,31.1228303 21.52,30.3588857 L22.82,31.5700381 C22.0613934,32.7543537 20.7554735,33.4738588 19.35,33.4818571 C17.04,33.4818571 15.35,31.9003524 14.83,29.3279048 L13.42,29.3279048 L13.42,27.9065524 L14.64,27.9065524 C14.6296572,27.703157 14.6296572,27.4993668 14.64,27.2959714 L14.64,27.1558381 C14.64,26.9156095 14.64,26.6653714 14.64,26.4251429 L13.42,26.4251429 L13.42,25.0238095 L14.86,25.0238095 C15.47,22.5714762 17.09,20.9499333 19.33,20.9499333 C20.7105674,20.9195046 22.0141277,21.5850663 22.8,22.721619 L21.43,24.0228571 Z" id="Shape"></path>
        </g>
    </g>
</svg>