<?xml version="1.0" encoding="UTF-8"?>
<svg width="47px" height="47px" viewBox="0 0 47 47" version="1.1" xmlns="http://www.w3.org/2000/svg" xmlns:xlink="http://www.w3.org/1999/xlink">
    <!-- Generator: Sketch 50.2 (55047) - http://www.bohemiancoding.com/sketch -->
    <title>luis_benefits_technical-support orange</title>
    <desc>Created with Sketch.</desc>
    <defs></defs>
    <g id="Desktop" stroke="none" stroke-width="1" fill="none" fill-rule="evenodd">
        <g id="luis_benefits_technical-support-orange" fill="#EE7302" fill-rule="nonzero">
            <path d="M23,31.3898667 C18.3828995,31.3898667 14.64,27.6434025 14.64,23.0219048 C14.64,18.400407 18.3828995,14.6539429 23,14.6539429 C27.6171005,14.6539429 31.36,18.400407 31.36,23.0219048 C31.36,25.2412262 30.4792168,27.3696501 28.9114127,28.9389474 C27.3436086,30.5082446 25.2172099,31.3898667 23,31.3898667 Z M23,12.5619524 C17.2286244,12.5619524 12.55,17.2450326 12.55,23.0219048 C12.55,28.7987769 17.2286244,33.4818571 23,33.4818571 C28.7713756,33.4818571 33.45,28.7987769 33.45,23.0219048 C33.45,20.2477529 32.349021,17.5872231 30.3892659,15.6256015 C28.4295107,13.6639799 25.7715123,12.5619524 23,12.5619524 Z M43.91,25.5743333 L41.77,26.1148476 C41.0319967,26.2954183 40.4500113,26.862628 40.25,27.5962571 C39.8497338,29.1035351 39.2511629,30.5508981 38.47,31.9003524 C38.0810637,32.5577133 38.0810637,33.3750201 38.47,34.032381 L39.61,36.0342857 L36,39.6477238 L34,38.486619 C33.6948272,38.3107995 33.3517997,38.2112267 33,38.1963429 C32.6478276,38.2000038 32.3028656,38.2966852 32,38.4766095 C30.6515976,39.2508698 29.2099381,39.8496105 27.71,40.2583048 C26.9724238,40.4477462 26.3994104,41.029004 26.22,41.7697429 L25.68,43.9318 L20.42,43.9318 L19.87,41.7497238 C19.6905896,41.008985 19.1175762,40.4277271 18.38,40.2382857 C16.8800619,39.8295915 15.4384024,39.2308507 14.09,38.4565905 C13.7871344,38.2766661 13.4421724,38.1799848 13.09,38.1763238 C12.7107849,38.1765109 12.3383019,38.2766248 12.01,38.4666 L10.06,39.6377143 L6.39,36.0342857 L7.54,34.032381 C7.924662,33.3738547 7.924662,32.5588787 7.54,31.9003524 C6.751458,30.5533628 6.14929077,29.1054382 5.75,27.5962571 C5.5499887,26.862628 4.96800329,26.2954183 4.23,26.1148476 L2.1,25.5743333 L2.1,20.4394476 L4.26,19.8989333 C4.99734772,19.7108577 5.5774441,19.141669 5.78,18.4075143 C6.17929077,16.8983333 6.781458,15.4504086 7.57,14.103419 C7.954662,13.4448928 7.954662,12.6299167 7.57,11.9713905 L6.4,10.069581 L10,6.39608571 L12,7.55719048 C12.3283019,7.74716572 12.7007849,7.84727956 13.08,7.84746667 C13.4321724,7.84380571 13.7771344,7.74712437 14.08,7.5672 C15.4246584,6.78776597 16.8674585,6.19191788 18.37,5.79551429 C19.1067907,5.59845794 19.6778557,5.01534025 19.86,4.27406667 L20.41,2.09199048 L25.57,2.09199048 L26.11,4.25404762 C26.2921443,4.9953212 26.8632093,5.5784389 27.6,5.77549524 C29.1025415,6.17189883 30.5453416,6.76774693 31.89,7.54718095 C32.1928656,7.72710532 32.5378276,7.82378666 32.89,7.82744762 C33.2773709,7.8372425 33.6604024,7.74398393 34,7.55719048 L36,6.39608571 L39.61,10.0095238 L38.46,12.0114286 C38.0710637,12.6687895 38.0710637,13.4860963 38.46,14.1434571 C39.2411629,15.4929114 39.8397338,16.9402744 40.24,18.4475524 C40.4425559,19.1817071 41.0226523,19.7508958 41.76,19.9389714 L43.92,20.4794857 L43.91,25.5743333 Z M44.47,18.3874952 L42.25,17.8369714 C41.804471,16.1487784 41.131639,14.5290761 40.25,13.0223905 L41.43,11.0204857 C41.91,10.3798762 41.91,9.4990381 41.43,8.85842857 L37.1,4.57435238 C36.8359299,4.31090253 36.472221,4.17256151 36.1,4.19399048 C35.6667153,4.20956672 35.2454845,4.34089471 34.88,4.57435238 L33,5.75547619 C31.4991163,4.87845522 29.8883127,4.20524531 28.21,3.75357143 L27.6,1.53145714 C27.36,0.780742857 26.91,0 26.07,0 L19.93,0 C19.09,0 18.59,0.780742857 18.4,1.53145714 L17.84,3.77359048 C16.1616873,4.22526436 14.5508837,4.89847426 13.05,5.77549524 L11.05,4.59437143 C10.6845155,4.36091376 10.2632847,4.22958577 9.83,4.21400952 C9.47491418,4.20665196 9.13206176,4.34392354 8.88,4.59437143 L4.57,8.91848571 C4.09,9.55909524 4.09,10.4399333 4.57,11.0805429 L5.75,13.0824476 C4.86836105,14.5891332 4.19552895,16.2088355 3.75,17.8970286 L1.53,18.4475524 C0.78,18.6077048 0,19.108181 0,19.948981 L0,26.0948286 C0,26.9356286 0.78,27.3860571 1.53,27.6262857 L3.75,28.1768095 C4.19552895,29.8650026 4.86836105,31.4847049 5.75,32.9913905 L4.57,34.9932952 C4.07103461,35.6311872 4.07103461,36.5274699 4.57,37.1653619 L8.9,41.4694571 C9.14253919,41.7145893 9.47543706,41.8485996 9.82,41.8398095 C10.2595317,41.8139662 10.6872303,41.6872468 11.07,41.4694571 L13.07,40.2883333 C14.5708837,41.1653543 16.1816873,41.8385642 17.86,42.2902381 L18.42,44.5323714 C18.61,45.2830857 19.11,46.0638286 19.95,46.0638286 L26.09,46.0638286 C26.93,46.0638286 27.38,45.2830857 27.62,44.5323714 L28.18,42.2902381 C29.8583127,41.8385642 31.4691163,41.1653543 32.97,40.2883333 L34.97,41.4694571 C35.3527697,41.6872468 35.7804683,41.8139662 36.22,41.8398095 C36.5645629,41.8485996 36.8974608,41.7145893 37.14,41.4694571 L41.47,37.1353333 C41.9689654,36.4974414 41.9689654,35.6011586 41.47,34.9632667 L40.29,32.9613619 C41.171639,31.4546763 41.844471,29.834974 42.29,28.146781 L44.51,27.5962571 C45.26,27.3560286 46.04,26.9056 46.04,26.0648 L46.04,19.948981 C46.04,19.108181 45.26,18.6077048 44.51,18.4175238 L44.47,18.3874952 Z" id="Shape"></path>
        </g>
    </g>
</svg>