<?xml version="1.0" encoding="UTF-8"?>
<svg width="15px" height="22px" viewBox="0 0 15 22" version="1.1" xmlns="http://www.w3.org/2000/svg" xmlns:xlink="http://www.w3.org/1999/xlink">
    <!-- Generator: Sketch 50.2 (55047) - http://www.bohemiancoding.com/sketch -->
    <title>luis_footer_location</title>
    <desc>Created with Sketch.</desc>
    <defs></defs>
    <g id="Desktop" stroke="none" stroke-width="1" fill="none" fill-rule="evenodd">
        <g id="Desktop-HD-Copy" transform="translate(-1040.000000, -8344.000000)" fill="#FF7500">
            <g id="luis_footer_location" transform="translate(1040.000000, 8344.302857)">
                <g id="Shape">
                    <path d="M7.33333333,0 C3.28324517,-2.58367133e-16 5.32829549e-16,3.42054451 0,7.64 C5.32829549e-17,13.84 7.33333333,21 7.33333333,21 C7.33333333,21 14.6666667,13.84 14.6666667,7.64 C14.6666667,5.61374602 13.8940498,3.67048212 12.5187831,2.23770419 C11.1435163,0.80492626 9.27825426,-3.25846492e-16 7.33333333,0 Z M7.33333333,19.57 C7.33333333,19.57 0.921465969,13.36 0.921465969,7.64 C0.921465969,3.95073787 3.79215677,0.96 7.33333333,0.96 C10.8745099,0.96 13.7452007,3.95073787 13.7452007,7.64 C13.7452007,13.36 7.33333333,19.57 7.33333333,19.57 Z M7.33333333,3.82 C5.30828925,3.82 3.66666667,5.53027226 3.66666667,7.64 C3.66666667,9.74972774 5.30828925,11.46 7.33333333,11.46 C9.35837742,11.46 11,9.74972774 11,7.64 C11,6.62687301 10.6136916,5.65524106 9.9260582,4.9388521 C9.23842481,4.22246313 8.3057938,3.82 7.33333333,3.82 Z M7.33333333,10.5 C6.2173836,10.5040439 5.20933646,9.80627743 4.78048598,8.73292854 C4.3516355,7.65957964 4.58671373,6.42272004 5.37581413,5.6006209 C6.16491453,4.77852176 7.35212705,4.53361298 8.38239214,4.98039721 C9.41265722,5.42718144 10.0824156,6.47738327 10.078534,7.64 C10.078534,8.39851916 9.78930836,9.12597135 9.27448336,9.66232539 C8.75965837,10.1986794 8.06140583,10.5 7.33333333,10.5 Z" fill-rule="nonzero"></path>
                </g>
            </g>
        </g>
    </g>
</svg>