<svg xmlns="http://www.w3.org/2000/svg" width="171" height="32" viewBox="0 0 171 32">
    <g fill="none" fill-rule="nonzero" transform="translate(-1 .5)">
        <path fill="#CDCDCD" d="M20.1 15.5c0-4.7 2.2-9.1 5.8-12C19.2-1.8 9.6-.6 4.3 6-1 12.6.2 22.3 6.8 27.6c2.7 2.2 6.1 3.3 9.6 3.3s6.8-1.2 9.5-3.3c-3.7-2.9-5.9-7.4-5.8-12.1z"/>
        <ellipse cx="25.9" cy="15.5" fill="#EBEBEB" rx="5.8" ry="12"/>
        <path fill="#FFF" d="M76.1 11.4c-.4-.4-.8-.6-1.3-.8-.5-.2-1.1-.3-1.6-.3-.3 0-.7 0-1 .1-.3.1-.7.1-1 .3-.3.1-.6.3-.9.6-.3.3-.6.6-.8.9-.3-.6-.8-1-1.4-1.3-.6-.3-1.3-.5-2-.5-.3 0-.5 0-.8.1-.6.1-1.1.3-1.6.7-.3.2-.5.5-.7.7v-1.2h-2v10.2h2.2V15c0-.4.1-.8.2-1.1.1-.3.3-.6.5-.8.2-.2.5-.4.8-.5.3-.1.7-.2 1-.2.6 0 1.3.2 1.7.7.4.6.7 1.3.6 2v5.7h2.2V15c0-.4.1-.8.2-1.1.1-.3.3-.6.6-.8.2-.2.5-.4.8-.5.3-.1.7-.2 1-.2.6 0 1.3.2 1.7.7.4.6.7 1.3.6 2v5.7h2.2v-6.4c0-.6-.1-1.1-.3-1.6-.3-.6-.6-1.1-.9-1.4zM87.5 11.7c-.4-.5-.8-.8-1.3-1.1-.6-.3-1.2-.4-1.9-.4s-1.4.1-2 .4c-.6.3-1.2.6-1.6 1.1-.5.5-.8 1.1-1.1 1.7-.3.7-.4 1.4-.4 2.2 0 .7.1 1.5.4 2.1.2.6.6 1.2 1.1 1.7.9 1 2.3 1.6 3.6 1.6 1.2 0 2.4-.5 3.2-1.5v1.2h2.2V10.5h-2.2v1.2zm-.1 5.2c-.1.4-.3.7-.6 1-.3.3-.6.5-1 .7-.4.2-.8.3-1.3.2-.4 0-.9-.1-1.3-.3-.4-.2-.7-.4-1-.7-.3-.3-.5-.6-.6-1-.1-.4-.2-.8-.2-1.3 0-.4.1-.9.2-1.3s.3-.7.6-1c.3-.3.6-.5 1-.7.4-.2.8-.3 1.3-.3.4 0 .9.1 1.3.2.4.2.7.4 1 .7.3.3.5.6.6 1 .3 1 .3 2 0 2.8zM99.9 15.6c-.8-.5-1.7-.9-2.6-1l-1-.2-.7-.1c-.2 0-.4-.1-.5-.2-.1-.1-.3-.2-.4-.3-.1-.1-.1-.3-.1-.4 0-.4.2-.7.5-.9.4-.2.9-.4 1.4-.3.3 0 .7 0 1 .1.3.1.6.1.9.2.3.1.5.2.8.3l.6.3 1-1.7c-.6-.4-1.2-.6-1.9-.8-.7-.2-1.5-.3-2.3-.3-.6 0-1.2.1-1.8.2-.5.1-.9.4-1.3.6-.4.3-.6.6-.8 1-.2.4-.3.9-.3 1.4 0 .8.3 1.5.9 2 .7.6 1.6.9 2.6 1l1.1.1c.5 0 .9.2 1.3.4.3.1.4.4.4.7 0 .4-.2.7-.6.9-.5.3-1.1.4-1.7.4-.4 0-.7 0-1.1-.1-.3-.1-.6-.1-.9-.2-.3-.1-.5-.2-.7-.3-.2-.1-.4-.3-.6-.4l-1 1.7c.4.3.7.5 1.2.7.4.2.8.3 1.2.4.4.1.7.2 1.1.2h.9c.7 0 1.3-.1 2-.2.4-.2.9-.4 1.2-.7.4-.3.7-.6.9-1.1.2-.4.3-.9.3-1.3 0-.9-.4-1.6-1-2.1zM120.7 11.7c-.4-.5-.9-.8-1.5-1.1-.6-.3-1.3-.4-2-.4s-1.4.1-2 .4c-.6.2-1.2.6-1.6 1.1-.4.5-.8 1.1-1 1.7-.3.7-.4 1.4-.4 2.2 0 .8.1 1.5.4 2.2.2.6.6 1.2 1.1 1.7.5.5 1 .8 1.7 1.1.7.3 1.4.4 2.1.4.7 0 1.5-.1 2.2-.3.7-.2 1.4-.6 2-1.1l-1.1-1.6c-.4.3-.9.6-1.4.8-.5.2-1 .3-1.5.3-.3 0-.7-.1-1-.1-.3-.1-.6-.3-.9-.5-.3-.2-.5-.5-.7-.8-.2-.4-.3-.8-.4-1.2h7.4V16v-.4c0-.7-.1-1.5-.3-2.2-.4-.6-.7-1.2-1.1-1.7zm-6.2 3c.1-.3.2-.7.3-1 .1-.3.3-.6.6-.8.2-.2.5-.4.8-.5.3-.1.7-.2 1.1-.2.6 0 1.3.2 1.7.7.5.5.8 1.2.8 1.9l-5.3-.1zM150.2 11.7c-.4-.5-.8-.8-1.3-1.1-.6-.3-1.2-.4-1.9-.4s-1.4.1-2 .4c-.6.3-1.2.6-1.6 1.1-.5.5-.8 1.1-1.1 1.7-.2.7-.4 1.4-.3 2.2 0 .7.1 1.5.4 2.1.7 1.9 2.6 3.2 4.6 3.2.7 0 1.3-.1 1.9-.4.5-.3 1-.6 1.3-1.1v1.2h2.2V10.5h-2.2v1.2zm0 5.2c-.1.4-.4.7-.6 1-.3.3-.6.5-1 .7-1.2.5-2.6.3-3.5-.7-.3-.3-.5-.6-.6-1-.1-.4-.2-.8-.2-1.3 0-.4.1-.9.2-1.3s.3-.7.6-1c.3-.3.6-.5 1-.7.8-.3 1.7-.3 2.5 0 .4.2.7.4 1 .7.3.3.5.6.6 1 .3.9.3 1.8 0 2.6zM109.4 18.7c-.3.1-.7.2-1.1.2-.2 0-.4 0-.6-.1-.2-.1-.4-.2-.5-.3-.2-.2-.3-.4-.3-.6-.1-.3-.1-.6-.1-.9v-4.4h3.6v-2h-3.6V7.4h-2.2v3.1h-2v2h2V17c-.1 1.1.3 2.2 1 3 .7.7 1.7 1.1 2.7 1 .6 0 1.2-.1 1.7-.3.3-.1.6-.3.9-.5l-.8-1.9c-.2.2-.4.3-.7.4zM129.5 10.2c-.6 0-1.2.1-1.7.3-.5.3-1 .7-1.3 1.3v-1.3h-2v10.2h2v-5.6c0-.4.1-.8.2-1.2.1-.3.3-.6.5-.9.2-.2.5-.4.8-.5.3-.1.7-.2 1-.2.3 0 .6 0 .9.1.2 0 .3.1.4.1l.7-2.1c-.2-.1-.4-.1-.6-.1-.3 0-.6-.1-.9-.1zM160.4 10.2c-.6 0-1.2.1-1.7.3-.5.3-1 .7-1.3 1.3v-1.3h-2v10.2h2v-5.6c0-.4.1-.8.2-1.2.1-.3.3-.6.5-.9.2-.2.5-.4.8-.5.3-.1.7-.2 1-.2.3 0 .6 0 .9.1.2 0 .3.1.4.1l.6-2.1c-.2-.1-.4-.1-.5-.1-.3 0-.6-.1-.9-.1zM170.8 6.4v5.4c-.8-1-2-1.5-3.2-1.5-.7 0-1.4.1-2 .4-.6.3-1.1.6-1.6 1.1-.5.5-.8 1.1-1.1 1.7-.3.7-.4 1.4-.4 2.2 0 .7.1 1.5.4 2.1.2.6.6 1.2 1.1 1.7.9 1 2.2 1.5 3.6 1.5 1.2 0 2.4-.5 3.2-1.5v1.2h2.2V6.4h-2.2zm-.1 10.5c-.1.4-.4.7-.6 1-.3.3-.6.5-1 .7-.4.2-.8.3-1.3.2-.4 0-.9-.1-1.3-.3-.4-.2-.7-.4-1-.7-.3-.3-.5-.6-.6-1-.1-.4-.2-.8-.2-1.3 0-.4.1-.9.2-1.3s.3-.7.6-1c.3-.3.6-.5 1-.7.4-.2.8-.3 1.3-.3.4 0 .9.1 1.3.2.4.2.7.4 1 .7.3.3.5.6.6 1 .3 1 .3 2 0 2.8zM134.8 13.2c.3-.3.6-.5 1-.7.4-.2.8-.2 1.3-.2s.9.1 1.4.2c.4.1.8.4 1.1.6l1.1-1.8c-.4-.3-.9-.6-1.4-.8-1.4-.5-3-.5-4.4 0-.6.3-1.2.6-1.7 1.1-.5.5-.9 1.1-1.1 1.7-.6 1.4-.6 2.9 0 4.2.3.6.6 1.2 1.1 1.7.5.5 1.1.9 1.7 1.1 1.4.5 3 .5 4.4 0 .5-.2.9-.5 1.4-.8l-1.1-1.8c-.3.3-.7.5-1.1.6-.4.2-.9.2-1.4.2-.4 0-.9-.1-1.3-.2-.4-.2-.7-.4-1-.7-.3-.3-.5-.6-.7-1-.2-.4-.2-.9-.2-1.3 0-.5.1-.9.2-1.3.2-.1.4-.4.7-.8zM35.4.1c-3.5 0-6.8 1.2-9.5 3.3 6.7 5.3 7.8 14.9 2.5 21.6-.7.9-1.6 1.8-2.5 2.5 6.7 5.3 16.3 4.1 21.6-2.5 5.3-6.6 4.1-16.3-2.5-21.6C42.3 1.3 38.9.1 35.4.1z"/>
    </g>
</svg>
