<svg xmlns="http://www.w3.org/2000/svg" width="14" height="14" viewBox="0 0 14 14">
    <path fill="#FF7500" fill-rule="nonzero" d="M13.68 0H2.23a.32.32 0 0 0-.32.32v4.77a.32.32 0 1 0 .64 0V.64h10.81v12.72H2.55V8.91a.32.32 0 1 0-.64 0v4.77c0 .177.143.32.32.32h11.45a.32.32 0 0 0 .32-.32V.32a.32.32 0 0 0-.32-.32zM8.37 9.32a.33.33 0 0 0-.1.23.33.33 0 0 0 .55.22l2.54-2.55a.28.28 0 0 0 .09-.22.32.32 0 0 0-.09-.23L8.82 4.23a.33.33 0 0 0-.55.22.33.33 0 0 0 .1.23l2 2H.32a.32.32 0 1 0 0 .64h10l-1.95 2z"/>
</svg>
