<?xml version="1.0" encoding="UTF-8"?>
<svg width="46px" height="47px" viewBox="0 0 46 47" version="1.1" xmlns="http://www.w3.org/2000/svg" xmlns:xlink="http://www.w3.org/1999/xlink">
    <!-- Generator: Sketch 50.2 (55047) - http://www.bohemiancoding.com/sketch -->
    <title>luis_benefits_individual-solutions blue</title>
    <desc>Created with Sketch.</desc>
    <defs></defs>
    <g id="Desktop" stroke="none" stroke-width="1" fill="none" fill-rule="evenodd" stroke-linecap="round">
        <g id="luis_benefits_individual-solutions-blue" transform="translate(1.000000, 1.000000)" stroke="#1F2A44" stroke-width="2">
            <path d="M20.55,23.2721429 L31.46,12.4418381 M34.31,38.7969143 L37.25,44.0419048 M6.79,38.7969143 L3.84,44.0419048" id="Shape"></path>
            <polygon id="Shape" stroke-linejoin="round" points="37.1 13.6730095 31.57 12.3217238 30.21 6.83650476 37.1 0 38.47 5.48521905 44 6.83650476"></polygon>
            <path d="M20.55,16.585781 C16.6506743,16.6133882 13.5099082,19.7958999 13.5301016,23.6989845 C13.550295,27.6020692 16.7238224,30.7518503 20.6232246,30.7390324 C24.5226269,30.7262146 27.6754179,27.555638 27.67,23.6525048 M20.55,3.27311429 C9.32126586,3.36691856 0.286150646,12.5387114 0.350334877,23.7783474 C0.414519108,35.0179834 9.55379204,44.0857931 20.7828638,44.0511071 C32.0119355,44.0164211 41.0951215,34.8923232 41.09,23.6525048 M20.55,10.4799714 C13.2965612,10.5406603 7.45986691,16.4648066 7.50020348,23.7252949 C7.54054006,30.9857831 13.442696,36.8445884 20.6963606,36.8245276 C27.9500251,36.8044669 33.8197466,30.9131053 33.82,23.6525048" id="Shape"></path>
        </g>
    </g>
</svg>