<?xml version="1.0" encoding="UTF-8"?>
<svg width="66px" height="41px" viewBox="0 0 66 41" version="1.1" xmlns="http://www.w3.org/2000/svg" xmlns:xlink="http://www.w3.org/1999/xlink">
    <!-- Generator: Sketch 50.2 (55047) - http://www.bohemiancoding.com/sketch -->
    <title>luis_sector_logistics</title>
    <desc>Created with Sketch.</desc>
    <defs></defs>
    <g id="Desktop" stroke="none" stroke-width="1" fill="none" fill-rule="evenodd">
        <g id="Artboard" transform="translate(-2958.000000, -1356.000000)" fill="#1F2A44" fill-rule="nonzero">
            <g id="luis_sector_logistics" transform="translate(2958.000000, 1355.350877)">
                <path d="M51.2,41.2 C47.5,41.2 44.4,38.2 44.4,34.4 C44.4,30.6 47.4,27.6 51.2,27.6 C55,27.6 58,30.6 58,34.4 C58,38.2 54.9,41.2 51.2,41.2 Z M51.2,29.2 C48.3,29.2 46,31.6 46,34.4 C46,37.2 48.4,39.6 51.2,39.6 C54,39.6 56.4,37.2 56.4,34.4 C56.4,31.6 54.1,29.2 51.2,29.2 Z M18.2,41.2 C14.5,41.2 11.4,38.2 11.4,34.4 C11.4,30.6 14.4,27.6 18.2,27.6 C22,27.6 25,30.6 25,34.4 C25,38.2 21.9,41.2 18.2,41.2 Z M18.2,29.2 C15.3,29.2 13,31.6 13,34.4 C13,37.2 15.4,39.6 18.2,39.6 C21,39.6 23.4,37.2 23.4,34.4 C23.4,31.6 21.1,29.2 18.2,29.2 Z M62.8,35.2 L60.2,35.2 C59.8,35.2 59.4,34.9 59.4,34.4 C59.4,33.9 59.7,33.6 60.2,33.6 L62.8,33.6 C63.6,33.6 64.3,32.9 64.3,32.1 C64.3,31.3 63.6,30.6 62.8,30.6 L58.7,30.6 C58.3,30.6 57.9,30.3 57.9,29.8 C57.9,29.3 58.2,29 58.7,29 L62.5,29 L62.5,22.7 C62.5,19.5 59.3,13.9 57.5,10.5 L56.8,9.3 C56.2,8.3 55.9,7.8 55.4,7.8 L45.2,7.8 C44.4,7.8 43.3,8.1 43.3,8.9 L43.3,26.9 C43.3,27.3 43,27.7 42.5,27.7 C42,27.7 41.7,27.4 41.7,26.9 L41.7,3 C41.7,2.6 41.4,2.2 40.9,2.2 L2.4,2.2 C2,2.2 1.7,2.6 1.7,3 L1.7,28.5 C1.7,28.9 2,29.3 2.5,29.3 L10.7,29.3 C11.1,29.3 11.5,29.6 11.5,30.1 C11.5,30.6 11.2,30.9 10.7,30.9 L6.2,30.9 C5.4,30.9 4.7,31.6 4.7,32.4 C4.7,33.2 5.4,33.9 6.2,33.9 L9.2,33.9 C9.6,33.9 10,34.2 10,34.7 C10,35.2 9.7,35.5 9.2,35.5 L6.2,35.5 C4.5,35.5 3.2,34.2 3.2,32.5 C3.2,32 3.3,31.4 3.6,31 L2.4,31 C1.2,31 0.2,30 0.2,28.8 L0.2,3 C0.2,1.8 1.2,0.8 2.4,0.8 L41,0.8 C42.2,0.8 43.2,1.8 43.2,3 L43.2,6.8 C43.8,6.5 44.4,6.4 45.1,6.4 L55.2,6.4 C56.7,6.4 57.3,7.6 57.9,8.7 L58.6,9.9 C60.6,13.4 63.8,19.3 63.8,22.9 L63.8,29.5 C64.9,29.9 65.7,31 65.7,32.3 C65.8,33.9 64.5,35.2 62.8,35.2 Z M42.2,35.2 L27.2,35.2 C26.8,35.2 26.4,34.9 26.4,34.4 C26.4,33.9 26.7,33.6 27.2,33.6 L42.2,33.6 C42.6,33.6 43,33.9 43,34.4 C43,34.9 42.6,35.2 42.2,35.2 Z M43.7,30.8 L25.7,30.8 C25.3,30.8 24.9,30.5 24.9,30 C24.9,29.5 25.2,29.2 25.7,29.2 L43.7,29.2 C44.1,29.2 44.5,29.5 44.5,30 C44.5,30.5 44.1,30.8 43.7,30.8 Z M59.8,21.8 L47.1,21.8 C46.7,21.8 46.3,21.5 46.3,21 L46.3,12 C46.3,10.8 47.3,9.8 48.5,9.8 L54.5,9.8 C54.5,9.8 54.7,9.8 54.8,9.8 C55,9.8 55.3,10 55.4,10.2 L56,11.4 C57.8,14.4 59.3,17.6 60.5,20.8 C60.6,21 60.6,21.3 60.4,21.5 C60.3,21.7 60.1,21.8 59.8,21.8 Z M47.8,20.3 L58.7,20.3 C57.6,17.5 56.3,14.7 54.7,12.1 C54.7,12.1 54.7,12.1 54.7,12.1 L54.3,11.3 L48.5,11.3 C48.1,11.3 47.8,11.6 47.7,12.1 L47.7,20.3 L47.8,20.3 Z" id="Shape"></path>
            </g>
        </g>
    </g>
</svg>