<?xml version="1.0" encoding="UTF-8"?>
<svg width="84px" height="36px" viewBox="0 0 84 36" version="1.1" xmlns="http://www.w3.org/2000/svg" xmlns:xlink="http://www.w3.org/1999/xlink">
    <!-- Generator: Sketch 50.2 (55047) - http://www.bohemiancoding.com/sketch -->
    <title>luis_sector_nautic</title>
    <desc>Created with Sketch.</desc>
    <defs></defs>
    <g id="Symbole" stroke="none" stroke-width="1" fill="none" fill-rule="evenodd">
        <g id="luis_sector_nautic" transform="translate(-10.000000, -11.000000)" fill="#1F2A44" fill-rule="nonzero">
            <g transform="translate(10.000000, 11.000000)" id="Shape">
                <path d="M74.2,35.6 L3,35.6 C1,35.6 0,33.7 0,31.8 L0,23.5 C0,23.1 0.3,22.8 0.7,22.8 C0.7,22.8 4.1,22.7 8.8,22.5 L14.7,4.8 L12.7,4.8 C12.3,4.8 12,4.5 11.9,4.1 C11.9,3.1 12.2,2.2 12.9,1.5 C13.6,0.8 14.5,0.4 15.5,0.4 L45.6,0.4 C46.5,0.4 47.5,0.7 48.2,1.4 C49.1,2.1 49.5,3 49.5,4 L49.5,4.2 C49.5,4.6 49.2,4.9 48.7,4.9 L46.7,4.9 L48.8,12.4 L56.2,12.4 C59.1,12.4 63.9,12.4 67.2,18.4 L83.2,18.4 C83.5,18.4 83.7,18.5 83.8,18.8 C83.9,19 83.9,19.3 83.8,19.5 L74.8,35.3 C74.8,35.5 74.5,35.6 74.2,35.6 Z M1.5,24.3 L1.5,31.8 C1.5,32.7 1.9,34 3,34 L73.8,34 L82,19.9 L66.8,19.9 C66.8,19.9 66.8,19.9 66.8,19.9 L46.1,19.9 C45.4,20.7 43.2,22.7 38.3,22.9 C34.2,23 6.4,24.1 1.5,24.3 Z M13.6,3.4 L15.7,3.4 C15.9,3.4 16.2,3.5 16.3,3.7 C16.4,3.9 16.5,4.1 16.4,4.4 L10.4,22.5 C20.5,22.1 35.3,21.5 38.2,21.4 C43.5,21.2 45.1,18.8 45.1,18.7 C45.2,18.5 45.5,18.4 45.7,18.4 L65.4,18.4 C62.6,13.9 58.9,13.9 56.2,13.9 L48.3,13.9 C48.3,13.9 48.3,13.9 48.3,13.9 L32.2,13.9 C31.8,13.9 31.4,13.6 31.4,13.1 L31.4,5.6 C31.4,4.4 32.4,3.4 33.6,3.4 L41.1,3.4 C42.2,3.4 42.9,4.1 43.3,5.4 L45.1,12.4 L47.2,12.4 L44.9,4.4 C44.8,4.2 44.9,3.9 45,3.7 C45.1,3.5 45.4,3.4 45.6,3.4 L47.7,3.4 C47.6,3.1 47.4,2.8 47.1,2.5 C46.7,2.1 46.1,1.9 45.5,1.9 L15.5,1.9 C15.5,1.9 15.4,1.9 15.4,1.9 C15.4,1.9 15.4,1.9 15.4,1.9 C14.8,1.9 14.3,2.2 13.9,2.6 C13.9,2.8 13.7,3.1 13.6,3.4 Z M33,12.4 L43.7,12.4 L42,5.8 C41.7,4.9 41.4,4.9 41.2,4.9 L33.7,4.9 C33.3,4.9 32.9,5.2 32.9,5.7 L32.9,12.4 L33,12.4 Z M64.5,29.6 C62.4,29.6 60.7,27.9 60.7,25.8 C60.7,23.7 62.4,22 64.5,22 C66.6,22 68.3,23.7 68.3,25.8 C68.3,27.9 66.6,29.6 64.5,29.6 Z M64.5,23.6 C63.3,23.6 62.3,24.6 62.3,25.8 C62.3,27 63.3,28 64.5,28 C65.7,28 66.7,27 66.7,25.8 C66.7,24.6 65.7,23.6 64.5,23.6 Z M55.5,29.6 C53.4,29.6 51.7,27.9 51.7,25.8 C51.7,23.7 53.4,22 55.5,22 C57.6,22 59.3,23.7 59.3,25.8 C59.3,27.9 57.6,29.6 55.5,29.6 Z M55.5,23.6 C54.3,23.6 53.3,24.6 53.3,25.8 C53.3,27 54.3,28 55.5,28 C56.7,28 57.7,27 57.7,25.8 C57.7,24.6 56.7,23.6 55.5,23.6 Z M39.8,18.4 L15.8,18.4 C15.4,18.4 15,18.1 15,17.6 C15,17.1 15.3,16.8 15.8,16.8 L39.8,16.8 C40.2,16.8 40.6,17.1 40.6,17.6 C40.6,18.1 40.2,18.4 39.8,18.4 Z M28.5,13.9 L16.5,13.9 C16.3,13.9 16,13.8 15.9,13.6 C15.8,13.4 15.7,13.2 15.8,12.9 L17.9,5.4 C18.4,4 19.2,3.4 20.3,3.4 L27,3.4 C28.2,3.4 29.3,4.3 29.4,5.6 L29.4,13.1 C29.2,13.5 28.9,13.9 28.5,13.9 Z M17.5,12.4 L27.8,12.4 L27.8,5.6 C27.8,5.2 27.4,4.8 26.9,4.8 L20.2,4.8 C19.9,4.8 19.6,4.9 19.3,5.8 L17.5,12.4 Z"></path>
            </g>
        </g>
    </g>
</svg>