<?xml version="1.0" encoding="UTF-8"?>
<svg width="72px" height="38px" viewBox="0 0 72 38" version="1.1" xmlns="http://www.w3.org/2000/svg" xmlns:xlink="http://www.w3.org/1999/xlink">
    <!-- Generator: Sketch 50.2 (55047) - http://www.bohemiancoding.com/sketch -->
    <title>luis_sector_camping</title>
    <desc>Created with Sketch.</desc>
    <defs></defs>
    <g id="Desktop" stroke="none" stroke-width="1" fill="none" fill-rule="evenodd">
        <g id="Artboard" transform="translate(-3575.000000, -1607.000000)" fill="#1F2A44" fill-rule="nonzero">
            <g id="luis_sector_camping" transform="translate(3574.900000, 1607.133333)">
                <path d="M71.2,37.8 L65.2,37.8 C64.8,37.8 64.4,37.5 64.4,37 C64.4,36.5 64.7,36.2 65.2,36.2 L67.4,36.2 L67.4,31.7 L29.2,31.7 C28.8,31.7 28.4,31.4 28.4,30.9 C28.4,30.4 28.7,30.1 29.2,30.1 L57,30.1 C58.2,30.1 59.2,29.7 59.2,27.1 L59.2,8.5 C59.2,4.8 56.2,1.8 52.4,1.7 L3.8,1.7 C3.3,1.8 3,2.1 3,2.5 L3,26.5 L7.5,26.5 C7.9,26.5 8.3,26.8 8.3,27.3 C8.3,27.8 7.9,28 7.5,28 L2.6,28 C2.1,28 1.7,28.5 1.6,29 C1.6,29.3 1.7,29.6 1.9,29.8 C2.1,30 2.4,30.2 2.7,30.2 L11.3,30.2 C11.7,30.2 12.1,30.5 12.1,31 C12.1,31.5 11.8,31.8 11.3,31.8 L2.6,31.8 C1.8,31.7 1.2,31.4 0.7,30.9 C0.2,30.4 2.88657986e-15,29.7 0.1,29 C0.2,28.1 0.7,27.3 1.5,26.9 L1.5,2.5 C1.5,1.3 2.5,0.3 3.7,0.3 L52.5,0.3 C57,0.3 60.7,4 60.7,8.5 L60.7,27.2 C60.7,28.6 60.4,29.5 60,30.2 L67.5,30.2 L67.5,26.4 C67.5,26 67.8,25.6 68.3,25.6 C68.8,25.6 69.1,25.9 69.1,26.4 L69.1,36.2 L71.3,36.2 C71.7,36.2 72.1,36.5 72.1,37 C72.1,37.5 71.7,37.8 71.2,37.8 Z M20.2,37.8 C16.5,37.8 13.4,34.8 13.4,31 C13.4,27.2 16.4,24.2 20.2,24.2 C24,24.2 27,27.2 27,31 C27,34.8 24,37.8 20.2,37.8 Z M20.2,25.8 C17.3,25.8 15,28.2 15,31 C15,33.8 17.4,36.2 20.2,36.2 C23,36.2 25.4,33.8 25.4,31 C25.4,28.2 23.1,25.8 20.2,25.8 Z M51.8,28.8 C51.4,28.8 51,28.5 51,28 L51,10 C51,9.6 50.7,9.2 50.2,9.2 L41.2,9.2 C40.8,9.2 40.4,9.5 40.4,10 L40.4,28 C40.4,28.4 40.1,28.8 39.6,28.8 C39.1,28.8 39,28.4 39,28 L39,10 C39,8.8 40,7.8 41.2,7.8 L50.2,7.8 C51.4,7.8 52.4,8.8 52.4,10 L52.4,28 C52.5,28.4 52.2,28.8 51.8,28.8 Z M33,15.2 L24,15.2 C22.8,15.2 21.8,14.2 21.8,13 L21.8,7 C21.8,5.8 22.8,4.8 24,4.8 L33,4.8 C34.2,4.8 35.2,5.8 35.2,7 L35.2,13 C35.2,14.2 34.2,15.2 33,15.2 Z M24,6.2 C23.6,6.2 23.2,6.5 23.2,7 L23.2,13 C23.2,13.4 23.5,13.8 24,13.8 L33,13.8 C33.4,13.8 33.8,13.5 33.8,13 L33.8,7 C33.8,6.6 33.5,6.2 33,6.2 L24,6.2 Z M17.2,15.2 L8.2,15.2 C7,15.2 6,14.2 6,13 L6,7 C6,5.8 7,4.8 8.2,4.8 L17.2,4.8 C18.4,4.8 19.4,5.8 19.4,7 L19.4,13 C19.5,14.2 18.5,15.2 17.2,15.2 Z M8.2,6.2 C7.8,6.2 7.5,6.6 7.5,7 L7.5,13 C7.5,13.4 7.8,13.8 8.3,13.8 L17.3,13.8 C17.7,13.8 18.1,13.5 18.1,13 L18.1,7 C18.1,6.6 17.8,6.2 17.3,6.2 L8.2,6.2 Z" id="Shape"></path>
            </g>
        </g>
    </g>
</svg>