<svg xmlns="http://www.w3.org/2000/svg" width="100" height="26" viewBox="0 0 100 26">
    <g fill="none" fill-rule="nonzero">
        <path fill="#FFF" d="M77 6.3h-5.5c-.4 0-.7.3-.8.7l-2.2 14.1c0 .3.1.5.4.5h2.9c.3 0 .5-.2.5-.5l.6-4c.1-.4.4-.6.8-.6h1.7c3.6 0 5.7-1.8 6.3-5.2.3-1.2 0-2.5-.7-3.6-1.1-1-2.5-1.5-4-1.4zm.6 5.1c-.3 2-1.8 2-3.3 2h-.8l.6-3.7c0-.2.2-.4.4-.4h.5c1 0 1.9 0 2.4.6.3.5.4 1 .2 1.5z"/>
        <path fill="#EBEBEB" d="M37.8 6.3h-5.5c-.4 0-.7.3-.8.7l-2.2 14.1c0 .2.1.5.4.5h2.7c.4 0 .7-.3.8-.6l.6-3.8c.1-.4.4-.6.8-.6h1.7c3.6 0 5.7-1.8 6.3-5.2.3-1.2.1-2.5-.7-3.6-1.2-1.1-2.6-1.6-4.1-1.5zm.6 5.1c-.3 2-1.8 2-3.3 2h-.8l.6-3.7c0-.2.2-.4.5-.4h.4c1 0 1.9 0 2.4.6.3.5.4 1 .2 1.5zM54.2 11.4h-2.6c-.2 0-.4.2-.5.4l-.1.7-.2-.3c-.8-.8-2-1.2-3.1-1.1-3 .1-5.5 2.3-5.9 5.3-.3 1.4.1 2.9 1 4 .8.9 2.1 1.4 3.3 1.3 1.4 0 2.7-.5 3.7-1.5l-.1.7c0 .2.1.5.4.5h2.5c.4 0 .7-.3.8-.6l1.4-9c-.1-.2-.3-.4-.6-.4.1 0 0 0 0 0zm-3.6 5.1c-.2 1.5-1.5 2.6-3 2.5-1.1.1-2.1-.7-2.2-1.8 0-.2 0-.5.1-.7.2-1.5 1.5-2.6 3-2.5.7 0 1.3.2 1.8.7.2.5.4 1.2.3 1.8z"/>
        <path fill="#FFF" d="M93.4 11.4h-2.6c-.2 0-.4.2-.4.4l-.2.7-.2-.3c-.8-.8-1.9-1.2-3.1-1.1-3 .1-5.5 2.3-5.9 5.3-.3 1.4.1 2.9 1 4 .8.9 2.1 1.4 3.3 1.3 1.3 0 2.6-.5 3.6-1.5l-.1.7c0 .2.1.5.4.5h2.5c.4 0 .7-.3.8-.6l1.4-9c0-.1-.1-.4-.5-.4.1 0 .1 0 0 0zm-3.6 5.1c-.2 1.5-1.5 2.6-3 2.5-.7 0-1.3-.2-1.8-.7-.4-.5-.5-1.2-.4-1.8.2-1.5 1.5-2.5 2.9-2.5.7 0 1.3.2 1.8.7.4.5.6 1.2.5 1.8z"/>
        <path fill="#EBEBEB" d="M68.2 11.4h-2.7c-.3 0-.5.1-.6.3l-3.7 5.4-1.5-5.2c-.1-.3-.4-.6-.7-.6h-2.6c-.3 0-.5.2-.5.5v.1l2.9 8.5-2.7 3.9c-.1.2-.1.5.1.6.1.1.2.1.3.1h2.7c.3 0 .5-.1.6-.3L68.6 12c.1-.2 0-.5-.2-.6h-.2z"/>
        <path fill="#FFF" d="M96.6 6.7l-2.3 14.4c0 .3.1.5.4.5H97c.4 0 .7-.3.8-.6L100 6.8c0-.3-.1-.5-.4-.5H97c-.2 0-.4.2-.4.4zM18.5 7c.4-1.5 0-3.1-1-4.3C16.3 1.4 14.3.9 11.7.9H4.2c-.5 0-1 .4-1.1.9L0 21.7c-.1.4.2.7.5.7h4.8L5 24.5c0 .3.2.6.5.6h4c.5 0 .8-.3.9-.8v-.2l.8-4.7.1-.3c.1-.5.5-.8.9-.8h.6c3.8 0 6.8-1.5 7.7-6 .4-1.9.2-3.4-.8-4.5-.4-.2-.8-.5-1.2-.8"/>
        <path fill="#CDCDCD" d="M18.5 7c.4-1.5 0-3.1-1-4.3C16.3 1.4 14.3.9 11.7.9H4.2c-.5 0-1 .4-1.1.9L0 21.7c-.1.4.2.7.5.7h4.8L6.5 15v.2c.1-.5.5-.9 1.1-.9h2.2c4.3 0 7.7-1.8 8.7-6.9V7"/>
        <path fill="#EBEBEB" d="M7.7 7.1c.1-.3.3-.6.5-.8.1-.1.3-.1.4-.1h5.9c.7 0 1.3 0 2 .1l.5.2c.2 0 .3.1.5.1l.2.1c.3.1.6.2.8.3.4-1.5 0-3.1-1-4.3C16.4 1.4 14.3.9 11.7.9H4.2c-.5 0-1 .4-1.1.9L0 21.7c-.1.4.2.7.5.7h4.8L6.5 15l1.2-7.9z"/>
    </g>
</svg>
