<?xml version="1.0" encoding="UTF-8"?>
<svg width="87px" height="41px" viewBox="0 0 87 41" version="1.1" xmlns="http://www.w3.org/2000/svg" xmlns:xlink="http://www.w3.org/1999/xlink">
    <!-- Generator: Sketch 50.2 (55047) - http://www.bohemiancoding.com/sketch -->
    <title>luis_sector_communal white</title>
    <desc>Created with Sketch.</desc>
    <defs></defs>
    <g id="Desktop" stroke="none" stroke-width="1" fill="none" fill-rule="evenodd">
        <g id="Artboard" transform="translate(-4495.000000, -1357.000000)" fill="#FFFFFF" fill-rule="nonzero">
            <g id="luis_sector_communal-white" transform="translate(4495.000000, 1357.000000)">
                <path d="M70.9,40.8 C67.2,40.8 64.1,37.8 64.1,34 C64.1,30.2 67.1,27.2 70.9,27.2 C74.7,27.2 77.7,30.2 77.7,34 C77.7,37.8 74.6,40.8 70.9,40.8 Z M70.9,28.8 C68,28.8 65.7,31.2 65.7,34 C65.7,36.8 68.1,39.2 70.9,39.2 C73.7,39.2 76.1,36.8 76.1,34 C76.1,31.2 73.8,28.8 70.9,28.8 Z M37.9,40.8 C34.2,40.8 31.1,37.8 31.1,34 C31.1,30.2 34.1,27.2 37.9,27.2 C41.7,27.2 44.7,30.2 44.7,34 C44.7,37.8 41.6,40.8 37.9,40.8 Z M37.9,28.8 C35,28.8 32.7,31.2 32.7,34 C32.7,36.8 35.1,39.2 37.9,39.2 C40.7,39.2 43.1,36.8 43.1,34 C43.1,31.2 40.8,28.8 37.9,28.8 Z M22.9,40.8 C19.2,40.8 16.1,37.8 16.1,34 C16.1,30.2 19.1,27.2 22.9,27.2 C26.7,27.2 29.7,30.2 29.7,34 C29.7,37.8 26.6,40.8 22.9,40.8 Z M22.9,28.8 C20,28.8 17.7,31.2 17.7,34 C17.7,36.8 20.1,39.2 22.9,39.2 C25.7,39.2 28.1,36.8 28.1,34 C28.1,31.2 25.8,28.8 22.9,28.8 Z M83.6,34.8 L79.8,34.8 C79.4,34.8 79,34.5 79,34 C79,33.5 79.3,33.2 79.8,33.2 L83.6,33.2 C84.4,33.2 85.1,32.5 85.1,31.7 C85.1,30.9 84.4,30.2 83.6,30.2 L78.4,30.2 C78,30.2 77.6,29.9 77.6,29.4 C77.6,28.9 77.9,28.6 78.4,28.6 L82.9,28.6 L82.9,21.2 L77.3,8 C76.7,6.7 76.4,6.2 75.8,6.2 L62.3,6.2 C61.5,6.2 60.4,6.5 60.4,7.3 C60.4,7.3 60.4,7.3 60.4,7.3 L60.4,26.4 C60.4,26.8 60.1,27.2 59.6,27.2 C59.1,27.2 58.8,26.9 58.8,26.4 L58.8,2.4 C58.8,2.2 58.7,2 58.6,1.9 C58.5,1.8 58.3,1.7 58.1,1.7 L13.3,1.7 C11.7,3.8 3.3,13.8 1.9,15.5 L1.9,32.5 C1.9,32.9 2.2,33.3 2.7,33.3 L13.2,33.3 C13.6,28.3 17.8,24.3 22.9,24.3 C23.3,24.3 23.7,24.6 23.7,25.1 C23.7,25.6 23.4,25.9 22.9,25.9 C18.4,25.9 14.7,29.6 14.7,34.1 C14.7,34.5 14.4,34.9 13.9,34.9 L2.6,34.9 C1.4,34.9 0.4,33.9 0.4,32.7 L0.4,15.3 C0.4,15.1 0.5,15 0.6,14.8 C1.3,13.9 11.4,1.9 12.6,0.5 C12.7,0.3 12.9,0.2 13.2,0.2 L58.3,0.2 C59,0.2 59.5,0.5 59.9,0.9 C60.3,1.3 60.5,1.9 60.5,2.5 L60.5,5.1 C61.1,4.8 61.7,4.7 62.4,4.7 L75.9,4.7 C77.7,4.7 78.3,6.3 78.8,7.4 L84.3,21 C84.3,21.1 84.4,21.2 84.4,21.3 L84.4,28.9 C85.7,29.2 86.6,30.4 86.6,31.8 C86.6,33.4 85.3,34.8 83.6,34.8 Z M61.9,34.8 L46.9,34.8 C46.5,34.8 46.1,34.5 46.1,34 C46.1,33.5 46.4,33.2 46.9,33.2 L61.9,33.2 C62.3,33.2 62.7,33.5 62.7,34 C62.7,34.5 62.3,34.8 61.9,34.8 Z M63.4,30.2 L45.4,30.2 C45,30.2 44.6,29.9 44.6,29.4 C44.6,28.9 44.9,28.6 45.4,28.6 L63.4,28.6 C63.8,28.6 64.2,28.9 64.2,29.4 C64.2,29.9 63.8,30.2 63.4,30.2 Z M52.9,21.2 C52.5,21.2 52.1,20.9 52.1,20.4 L52.1,4 C52.1,3.6 52.4,3.2 52.9,3.2 C53.4,3.2 53.7,3.5 53.7,4 L53.7,20.5 C53.6,20.9 53.3,21.2 52.9,21.2 Z M45.4,21.2 C45,21.2 44.6,20.9 44.6,20.4 L44.6,4 C44.6,3.6 44.9,3.2 45.4,3.2 C45.9,3.2 46.2,3.5 46.2,4 L46.2,20.5 C46.1,20.9 45.8,21.2 45.4,21.2 Z M37.9,21.2 C37.5,21.2 37.1,20.9 37.1,20.4 L37.1,4 C37.1,3.6 37.4,3.2 37.9,3.2 C38.4,3.2 38.7,3.5 38.7,4 L38.7,20.5 C38.6,20.9 38.3,21.2 37.9,21.2 Z M30.4,21.2 C30,21.2 29.6,20.9 29.6,20.4 L29.6,4 C29.6,3.6 29.9,3.2 30.4,3.2 C30.9,3.2 31.2,3.5 31.2,4 L31.2,20.5 C31.1,20.9 30.8,21.2 30.4,21.2 Z M22.9,21.2 C22.5,21.2 22.1,20.9 22.1,20.4 L22.1,4 C22.1,3.6 22.4,3.2 22.9,3.2 C23.4,3.2 23.7,3.5 23.7,4 L23.7,20.5 C23.6,20.9 23.3,21.2 22.9,21.2 Z M15.4,21.2 C15,21.2 14.6,20.9 14.6,20.4 L14.6,4 C14.6,3.6 14.9,3.2 15.4,3.2 C15.9,3.2 16.2,3.5 16.2,4 L16.2,20.5 C16.1,20.9 15.8,21.2 15.4,21.2 Z M79.1,19.8 L64.9,19.8 C64.5,19.8 64.1,19.5 64.1,19 L64.1,10 C64.1,8.8 65.1,7.8 66.3,7.8 L73.8,7.8 C75.2,7.8 75.6,8.9 76,9.8 L79.8,18.8 C79.9,19 79.9,19.3 79.7,19.5 C79.5,19.7 79.4,19.8 79.1,19.8 Z M65.6,18.2 L78,18.2 L74.7,10.2 C74.3,9.3 74.2,9.2 73.9,9.2 L66.4,9.2 C66,9.2 65.7,9.5 65.6,10 L65.6,18.2 Z" id="Shape"></path>
            </g>
        </g>
    </g>
</svg>