<?xml version="1.0" encoding="UTF-8"?>
<svg width="75px" height="33px" viewBox="0 0 75 33" version="1.1" xmlns="http://www.w3.org/2000/svg" xmlns:xlink="http://www.w3.org/1999/xlink">
    <!-- Generator: Sketch 50.2 (55047) - http://www.bohemiancoding.com/sketch -->
    <title>luis_sector_automobile</title>
    <desc>Created with Sketch.</desc>
    <defs></defs>
    <g id="Desktop" stroke="none" stroke-width="1" fill="none" fill-rule="evenodd">
        <g id="Artboard" transform="translate(-2954.000000, -1732.000000)" fill="#1F2A44" fill-rule="nonzero">
            <g id="luis_sector_automobile" transform="translate(2953.933333, 1732.400000)">
                <path d="M57.9,31.8 C54.2,31.8 51.1,28.8 51.1,25 C51.1,21.2 54.1,18.2 57.9,18.2 C61.6,18.2 64.6,21.2 64.6,24.8 C64.6,24.8 64.6,24.9 64.6,24.9 C64.6,28.7 61.6,31.8 57.9,31.8 Z M57.9,19.8 C55,19.8 52.7,22.2 52.7,25 C52.7,27.8 55.1,30.2 57.9,30.2 C60.8,30.2 63.1,27.9 63.1,25.1 C63.1,25.1 63.1,25 63.1,25 C63.1,22.1 60.7,19.8 57.9,19.8 Z M17.4,31.8 C13.7,31.8 10.6,28.8 10.6,25 C10.6,21.2 13.6,18.2 17.4,18.2 C21.1,18.2 24.1,21.2 24.1,24.8 C24.1,24.8 24.1,24.9 24.1,24.9 C24.1,28.7 21.1,31.8 17.4,31.8 Z M17.4,19.8 C14.5,19.8 12.2,22.2 12.2,25 C12.2,27.8 14.6,30.2 17.4,30.2 C20.3,30.2 22.6,27.9 22.6,25.1 C22.6,25.1 22.6,25 22.6,25 C22.6,22.1 20.2,19.8 17.4,19.8 Z M66.9,25.8 C66.5,25.8 66.1,25.5 66.1,25 C66.1,24.5 66.4,24.2 66.9,24.2 L72.3,24.2 C72.8,24.2 73.2,23.7 73.3,23.2 C73.3,22.6 72.9,22 72.3,22 L65.4,22 C65,22 64.6,21.7 64.6,21.2 C64.6,20.7 64.9,20.4 65.4,20.4 L72.2,20.4 L72.2,19 C72.2,13.4 69.5,12.2 65.4,12.2 L57.9,12.2 C57.7,12.2 57.6,12.1 57.4,12 L48.7,5.2 C44.3,1.8 44.1,1.6 40.2,1.6 L14.9,1.6 C12.9,1.6 11.6,1.6 10.4,2.9 C9.1,4.3 4.1,10.4 3.1,11.7 L3.1,20.4 L7.6,20.4 C8,20.4 8.4,20.7 8.4,21.2 C8.4,21.7 8,22 7.6,22 L2.7,22 C2.2,22 1.8,22.5 1.7,23 C1.7,23.3 1.8,23.6 2,23.8 C2.2,24 2.5,24.2 2.8,24.2 L8.4,24.2 C8.8,24.2 9.2,24.5 9.2,25 C9.2,25.5 8.9,25.8 8.4,25.8 L2.7,25.8 C1.9,25.7 1.3,25.4 0.8,24.9 C0.3,24.4 0.1,23.7 0.2,23 C0.3,22.1 0.8,21.3 1.6,20.9 L1.6,11.6 C1.6,11.4 1.7,11.3 1.8,11.1 C2,10.7 7.9,3.6 9.3,2 C10.9,0.3 12.7,0.3 14.9,0.3 L40.2,0.3 C44.7,0.3 45.1,0.7 49.6,4.2 L58.1,10.8 L65.3,10.8 C69.1,10.8 73.5,11.7 73.5,19 L73.5,20.9 C74.3,21.4 74.7,22.3 74.7,23.3 C74.6,24.6 73.6,25.6 72.3,25.7 L66.9,25.8 Z M48.8,25.8 L26.4,25.8 C26,25.8 25.6,25.5 25.6,25 C25.6,24.5 25.9,24.2 26.4,24.2 L48.9,24.2 C49.3,24.2 49.7,24.5 49.7,25 C49.7,25.5 49.3,25.8 48.8,25.8 Z M17.4,12.3 L6.2,12.3 C5.9,12.3 5.6,12.1 5.5,11.9 C5.4,11.7 5.4,11.3 5.6,11.1 C7.7,8.4 10.6,5 11.5,4.1 C12.1,3.5 12.6,3.3 14.1,3.3 L17.3,3.3 C17.3,3.3 17.3,3.3 17.3,3.3 C18.5,3.3 19.5,4.3 19.5,5.5 L19.5,10 C19.6,11.3 18.6,12.3 17.4,12.3 Z M7.8,10.8 L17.4,10.8 C17.8,10.8 18.2,10.5 18.2,10 L18.2,5.5 C18.2,5.1 17.9,4.8 17.4,4.7 L14.2,4.7 C13,4.7 12.9,4.8 12.7,5 C11.9,5.8 9.7,8.4 7.8,10.8 Z M53,12.2 L35.4,12.2 C35,12.2 34.6,11.9 34.6,11.4 L34.6,5.4 C34.6,4.2 35.6,3.2 36.8,3.2 L40.1,3.2 C43.5,3.2 43.7,3.3 47.7,6.5 C47.7,6.5 47.7,6.5 47.7,6.5 L53.4,10.9 C53.7,11.1 53.8,11.4 53.6,11.7 C53.6,12 53.3,12.2 53,12.2 Z M36.1,10.8 L50.8,10.8 L46.9,7.8 C43.1,4.8 43.1,4.8 40.2,4.8 L36.9,4.8 C36.5,4.8 36.1,5.1 36.1,5.6 L36.1,10.8 Z M30.9,12.2 L23.4,12.2 C22.2,12.2 21.2,11.2 21.2,10 L21.2,5.5 C21.2,4.3 22.2,3.3 23.4,3.3 L30.9,3.3 C32.1,3.3 33.1,4.3 33.1,5.5 L33.1,10 C33.1,11.2 32.1,12.2 30.9,12.2 C30.9,12.2 30.9,12.2 30.9,12.2 Z M30.8,4.8 L23.3,4.8 C22.9,4.8 22.6,5.1 22.6,5.6 L22.6,10 C22.6,10.4 22.9,10.8 23.4,10.8 L30.9,10.8 C31.3,10.8 31.7,10.5 31.7,10 L31.7,5.5 C31.6,5.1 31.3,4.8 30.8,4.8 Z" id="Shape"></path>
            </g>
        </g>
    </g>
</svg>