<svg xmlns="http://www.w3.org/2000/svg" width="100" height="57" viewBox="0 0 100 57">
    <path fill="#FFF" fill-rule="nonzero" d="M86.272 50H7.326C5.11 50 4 47.679 4 45.358v-10.14c0-.488.333-.854.776-.854 0 0 3.77-.123 8.981-.367L20.3 12.375h-2.217c-.444 0-.776-.366-.887-.855 0-1.222.332-2.321 1.108-3.176C19.08 7.489 20.077 7 21.186 7h33.375c.998 0 2.107.366 2.883 1.222.998.855 1.441 1.954 1.441 3.176v.244c0 .489-.332.855-.887.855h-2.217l2.328 9.162h8.205c3.216 0 8.538 0 12.197 7.33h17.74c.333 0 .555.122.666.488.11.245.11.611 0 .855l-9.98 19.302c0 .244-.332.366-.665.366zM5.663 36.196v9.162c0 1.1.444 2.687 1.663 2.687H85.83l9.092-17.224H55.115c-.776.977-3.215 3.42-8.648 3.665-4.546.122-35.37 1.466-40.804 1.71zM19.08 10.665h2.328c.222 0 .554.122.665.366.111.245.222.489.111.855l-6.653 22.111c11.2-.488 27.61-1.221 30.825-1.344 5.876-.244 7.65-3.176 7.65-3.298.111-.244.444-.366.666-.366h21.843c-3.105-5.498-7.207-5.498-10.2-5.498H39.702c-.443 0-.887-.366-.887-.977v-9.162c0-1.466 1.109-2.687 2.44-2.687h8.315c1.22 0 1.996.855 2.44 2.443l1.996 8.551h2.328l-2.55-9.773c-.111-.244 0-.61.11-.855.112-.244.444-.366.666-.366h2.328c-.11-.367-.332-.733-.665-1.1-.443-.488-1.109-.733-1.774-.733H21.186h-.11c-.666 0-1.22.367-1.664.856 0 .244-.222.61-.332.977zm21.51 10.994h11.864l-1.885-8.062c-.332-1.1-.665-1.1-.887-1.1h-8.316c-.443 0-.887.367-.887.977v8.185h.111zM75.517 42.67c-2.328 0-4.213-2.076-4.213-4.642 0-2.565 1.885-4.642 4.213-4.642 2.329 0 4.214 2.077 4.214 4.642 0 2.566-1.885 4.642-4.214 4.642zm0-7.33c-1.33 0-2.44 1.223-2.44 2.688 0 1.466 1.11 2.688 2.44 2.688 1.33 0 2.44-1.222 2.44-2.688 0-1.465-1.11-2.687-2.44-2.687zm-9.979 7.33c-2.328 0-4.213-2.076-4.213-4.642 0-2.565 1.885-4.642 4.213-4.642 2.328 0 4.213 2.077 4.213 4.642 0 2.566-1.885 4.642-4.213 4.642zm0-7.33c-1.33 0-2.44 1.223-2.44 2.688 0 1.466 1.11 2.688 2.44 2.688 1.33 0 2.44-1.222 2.44-2.688 0-1.465-1.11-2.687-2.44-2.687zM48.13 28.99H21.519c-.444 0-.887-.367-.887-.978 0-.61.333-.977.887-.977H48.13c.443 0 .887.367.887.977 0 .611-.444.978-.887.978zM35.6 23.49H22.296c-.222 0-.554-.122-.665-.366-.111-.244-.222-.489-.111-.855l2.328-9.162c.555-1.71 1.442-2.443 2.661-2.443h7.43c1.33 0 2.55 1.1 2.66 2.687v9.162c-.221.489-.554.977-.997.977zM23.405 21.66h11.42v-8.307c0-.488-.443-.977-.997-.977h-7.43c-.332 0-.665.122-.997 1.222l-1.996 8.062z"/>
</svg>
