<?xml version="1.0" encoding="UTF-8"?>
<svg width="20px" height="16px" viewBox="0 0 20 16" version="1.1" xmlns="http://www.w3.org/2000/svg" xmlns:xlink="http://www.w3.org/1999/xlink">
    <!-- Generator: Sketch 50.2 (55047) - http://www.bohemiancoding.com/sketch -->
    <title>luis_footer_email</title>
    <desc>Created with Sketch.</desc>
    <defs></defs>
    <g id="Desktop" stroke="none" stroke-width="1" fill="none" fill-rule="evenodd">
        <g id="Desktop-HD-Copy" transform="translate(-1037.000000, -8268.000000)" fill="#FF7500">
            <g id="luis_footer_email" transform="translate(1037.000000, 8268.230476)">
                <g transform="translate(-0.500000, 0.000000)" id="Shape">
                    <path d="M14.91,3.53 L2.56,3.53 C2.09148875,3.52733796 1.64125256,3.71159015 1.30902256,4.04194315 C0.976792561,4.37229614 0.789992437,4.82148119 0.79,5.29 L0.79,13.29 C0.817161906,14.2463369 1.60329516,15.0058216 2.56,15 L14.91,15 C15.3785112,15.002662 15.8287474,14.8184099 16.1609774,14.4880569 C16.4932074,14.1577039 16.6800076,13.7085188 16.68,13.24 L16.68,5.29 C16.6800076,4.82148119 16.4932074,4.37229614 16.1609774,4.04194315 C15.8287474,3.71159015 15.3785112,3.52733796 14.91,3.53 Z M2.56,4.41 L14.91,4.41 C15.120177,4.41290467 15.3223723,4.49094498 15.48,4.63 L9.33,10.78 C9.17373409,10.9406719 8.95913051,11.0313161 8.735,11.0313161 C8.51086949,11.0313161 8.29626591,10.9406719 8.14,10.78 L2,4.63 C2.15502096,4.49314948 2.35328307,4.41526079 2.56,4.41 Z M1.68,5.57 L5.37,9.26 L1.68,13 L1.68,5.57 Z M14.91,14.12 L2.56,14.12 C2.35328307,14.1147392 2.15502096,14.0368505 2,13.9 L6,9.9 L7.51,11.4 C7.83457558,11.7254824 8.27533915,11.9084129 8.735,11.9084129 C9.19466085,11.9084129 9.63542442,11.7254824 9.96,11.4 L11.47,9.89 L15.47,13.89 C15.316409,14.0304829 15.1179934,14.111975 14.91,14.12 Z M15.79,13 L12.1,9.3 L15.79,5.61 L15.79,13 Z M18.44,-1.11035855e-16 L6.09,-1.11035855e-16 C5.62148875,-0.00266203876 5.17125256,0.18159015 4.83902256,0.511943145 C4.50679256,0.842296141 4.31999244,1.29148119 4.32,1.76 L4.32,2.21 C4.35310489,2.43021946 4.54230616,2.59310456 4.765,2.59310456 C4.98769384,2.59310456 5.17689511,2.43021946 5.21,2.21 L5.21,1.76 C5.21,1.27398942 5.60398942,0.88 6.09,0.88 L18.44,0.88 C18.9260106,0.88 19.32,1.27398942 19.32,1.76 L19.32,9.76 C19.32,10.2460106 18.9260106,10.64 18.44,10.64 L18,10.64 C17.7569947,10.64 17.56,10.8369947 17.56,11.08 C17.56,11.3230053 17.7569947,11.52 18,11.52 L18.44,11.52 C18.9085112,11.522662 19.3587474,11.3384099 19.6909774,11.0080569 C20.0232074,10.6777039 20.2100076,10.2285188 20.21,9.76 L20.21,1.76 C20.2100076,1.29148119 20.0232074,0.842296141 19.6909774,0.511943145 C19.3587474,0.18159015 18.9085112,-0.00266203876 18.44,-1.11035855e-16 Z" fill-rule="nonzero"></path>
                </g>
            </g>
        </g>
    </g>
</svg>