<?xml version="1.0" encoding="UTF-8"?>
<svg width="48px" height="40px" viewBox="0 0 48 40" version="1.1" xmlns="http://www.w3.org/2000/svg" xmlns:xlink="http://www.w3.org/1999/xlink">
    <!-- Generator: Sketch 50.2 (55047) - http://www.bohemiancoding.com/sketch -->
    <title>luis_benefits_owner-operated blue</title>
    <desc>Created with Sketch.</desc>
    <defs></defs>
    <g id="Desktop" stroke="none" stroke-width="1" fill="none" fill-rule="evenodd">
        <g id="luis_benefits_owner-operated-blue" transform="translate(1.000000, 1.000000)" stroke="#1F2A44" stroke-width="2">
            <path d="M39.4,7.24689524 C39.4040443,10.183857 37.6391226,12.8336907 34.9290773,13.9594881 C32.2190321,15.0852856 29.0982543,14.465052 27.0234827,12.3883044 C24.9487111,10.3115569 24.3290677,7.18780694 25.453794,4.47518069 C26.5785202,1.76255445 29.2258326,-0.00404819571 32.16,-8.44491848e-19 C36.1585416,8.88180114e-16 39.4,3.24454551 39.4,7.24689524 Z" id="Shape"></path>
            <path d="M39.71,38.0361905 L39.71,30.3388667 M24.61,38.0361905 L24.61,30.3388667 M18.31,38.0361905 L18.31,32.2106476 C18.5116232,24.7020078 24.6507954,18.7199338 32.155,18.7199338 C39.6592046,18.7199338 45.7983768,24.7020078 46,32.2106476 L46,38.0361905" id="Shape" stroke-linecap="round"></path>
            <path d="M17.28,13.0924571 C17.28,16.3706248 14.6250486,19.0281048 11.35,19.0281048 C8.07495143,19.0281048 5.42,16.3706248 5.42,13.0924571 C5.42,9.81428948 8.07495143,7.15680952 11.35,7.15680952 C14.6250486,7.15680952 17.28,9.81428948 17.28,13.0924571 Z" id="Shape"></path>
            <path d="M5.36,38.0361905 L5.36,31.7301905 M0,38.0361905 L0,33.5819524 C0.00357053323,29.679126 2.01354854,26.0528546 5.31987694,23.9841771 C8.62620534,21.9154995 12.7634263,21.6956397 16.27,23.4022667" id="Shape" stroke-linecap="round"></path>
        </g>
    </g>
</svg>