<?xml version="1.0" encoding="UTF-8"?>
<svg width="20px" height="21px" viewBox="0 0 20 21" version="1.1" xmlns="http://www.w3.org/2000/svg" xmlns:xlink="http://www.w3.org/1999/xlink">
    <!-- Generator: Sketch 50.2 (55047) - http://www.bohemiancoding.com/sketch -->
    <title>Shape</title>
    <desc>Created with Sketch.</desc>
    <defs></defs>
    <g id="Desktop" stroke="none" stroke-width="1" fill="none" fill-rule="evenodd">
        <g id="Desktop-HD-Copy" transform="translate(-1037.000000, -8162.000000)" fill="#FF7500" fill-rule="nonzero">
            <path d="M1052.22851,8181.2334 C1051.65497,8181.2382 1051.088,8181.111 1050.57138,8180.86162 L1050.42852,8180.86162 C1045.22429,8178.1884 1040.99509,8173.94014 1038.34287,8168.7215 C1038.35092,8168.66938 1038.35092,8168.61633 1038.34287,8168.56421 C1038.07393,8168.05186 1037.92724,8167.48411 1037.9143,8166.90549 C1037.90758,8165.02307 1039.23925,8163.40192 1041.08571,8163.04468 C1041.20831,8163.04017 1041.32729,8163.08677 1041.41428,8163.17337 C1041.41882,8163.20179 1041.41882,8163.23075 1041.41428,8163.25917 L1044.51426,8167.17718 L1044.59998,8167.26298 C1044.68134,8167.35332 1044.72704,8167.47024 1044.72855,8167.59186 C1044.7473,8167.66697 1044.7473,8167.74554 1044.72855,8167.82065 L1043.71427,8168.8216 C1043.00035,8169.53635 1043.00035,8170.69503 1043.71427,8171.40977 C1044.80935,8172.98588 1046.14462,8174.38033 1047.67139,8175.54227 C1048.0111,8175.86384 1048.46097,8176.04294 1048.92853,8176.04275 C1049.40564,8176.04203 1049.86294,8175.85173 1050.19995,8175.51368 L1051.28566,8174.46983 C1051.36034,8174.44837 1051.43955,8174.44837 1051.51423,8174.46983 C1051.63288,8174.46388 1051.74804,8174.51103 1051.82851,8174.59852 L1051.91423,8174.67002 L1055.75706,8177.67287 L1055.84278,8177.67287 L1055.92849,8177.74437 C1056.01011,8177.82882 1056.05615,8177.94146 1056.05706,8178.05895 L1056.05706,8178.15905 C1055.64996,8179.96403 1054.04858,8181.24636 1052.19994,8181.2477 M1056.99991,8178.04465 C1057.00396,8177.68663 1056.86512,8177.34178 1056.6142,8177.0866 L1056.37135,8176.88641 L1052.51422,8173.89785 C1052.24224,8173.67166 1051.89611,8173.55448 1051.5428,8173.56897 C1051.24186,8173.56542 1050.94902,8173.6665 1050.71423,8173.85496 L1049.64281,8174.9274 C1049.47193,8175.11863 1049.2277,8175.22786 1048.97138,8175.22769 C1048.67419,8175.23425 1048.39415,8175.0887 1048.22853,8174.84161 C1046.73502,8173.77135 1045.42306,8172.46779 1044.34284,8170.9808 C1044.09994,8170.8115 1043.95572,8170.53349 1043.95712,8170.23723 C1043.95791,8169.96964 1044.07215,8169.71496 1044.27141,8169.53657 L1045.34283,8168.47842 C1045.51973,8168.24271 1045.61952,8167.95803 1045.62854,8167.66336 C1045.62344,8167.30015 1045.48042,8166.9525 1045.22855,8166.691 L1042.24285,8162.77299 C1042.18906,8162.68606 1042.12685,8162.60464 1042.05713,8162.5299 C1041.79588,8162.27779 1041.44857,8162.13464 1041.08571,8162.12952 C1038.73085,8162.49039 1036.99379,8164.52093 1037.00002,8166.90549 C1037.00391,8167.61205 1037.15983,8168.30947 1037.45716,8168.95029 C1040.24244,8174.44111 1044.70009,8178.90303 1050.18566,8181.69098 C1050.82588,8181.98859 1051.52263,8182.14466 1052.22851,8182.14855 C1054.61079,8182.15479 1056.6394,8180.41606 1056.99991,8178.05895" id="Shape"></path>
        </g>
    </g>
</svg>