<?xml version="1.0" encoding="UTF-8"?>
<svg width="12px" height="15px" viewBox="0 0 12 15" version="1.1" xmlns="http://www.w3.org/2000/svg" xmlns:xlink="http://www.w3.org/1999/xlink">
    <!-- Generator: Sketch 50.2 (55047) - http://www.bohemiancoding.com/sketch -->
    <title>trash - simple-line-icons copy</title>
    <desc>Created with Sketch.</desc>
    <defs></defs>
    <g id="Desktop" stroke="none" stroke-width="1" fill="none" fill-rule="evenodd">
        <g id="Artboard" transform="translate(-2238.000000, -2740.000000)" fill="#EE7302">
            <path d="M2248.96484,2742.1875 C2249.08333,2742.1875 2249.18587,2742.23079 2249.27246,2742.31738 C2249.35905,2742.40397 2249.40234,2742.50651 2249.40234,2742.625 C2249.40234,2742.74349 2249.35905,2742.84603 2249.27246,2742.93262 C2249.18587,2743.01921 2249.08333,2743.0625 2248.96484,2743.0625 L2248.36328,2743.0625 L2247.33789,2753.17969 C2247.31966,2753.41667 2247.22168,2753.61719 2247.04395,2753.78125 C2246.86621,2753.94531 2246.65886,2754.02734 2246.42188,2754.02734 L2240.98047,2754.02734 C2240.74349,2754.02734 2240.53613,2753.94531 2240.3584,2753.78125 C2240.18066,2753.61719 2240.07813,2753.41667 2240.05078,2753.17969 L2239.03906,2743.0625 L2238.4375,2743.0625 C2238.31901,2743.0625 2238.21647,2743.01921 2238.12988,2742.93262 C2238.04329,2742.84603 2238,2742.74349 2238,2742.625 C2238,2742.50651 2238.04329,2742.40397 2238.12988,2742.31738 C2238.21647,2742.23079 2238.31901,2742.1875 2238.4375,2742.1875 L2241.51367,2742.1875 L2241.51367,2740.99805 C2241.51367,2740.71549 2241.61393,2740.47852 2241.81445,2740.28711 C2242.01497,2740.0957 2242.25195,2740 2242.52539,2740 L2244.87695,2740 C2245.15039,2740 2245.38737,2740.0957 2245.58789,2740.28711 C2245.78841,2740.47852 2245.88867,2740.71549 2245.88867,2740.99805 L2245.88867,2742.1875 L2248.96484,2742.1875 Z M2242.38867,2740.99805 L2242.38867,2742.1875 L2245.01367,2742.1875 L2245.01367,2740.99805 C2245.01367,2740.96159 2245,2740.92969 2244.97266,2740.90234 C2244.94531,2740.875 2244.91341,2740.86133 2244.87695,2740.86133 L2242.52539,2740.86133 C2242.48893,2740.86133 2242.45703,2740.875 2242.42969,2740.90234 C2242.40234,2740.92969 2242.38867,2740.96159 2242.38867,2740.99805 Z M2246.47656,2753.09766 L2247.47461,2743.0625 L2239.92773,2743.0625 L2240.92578,2753.09766 C2240.92578,2753.10677 2240.93262,2753.11816 2240.94629,2753.13184 C2240.95996,2753.14551 2240.97135,2753.15234 2240.98047,2753.15234 L2246.42188,2753.15234 C2246.43099,2753.15234 2246.44238,2753.14779 2246.45605,2753.13867 C2246.46973,2753.12956 2246.47656,2753.11589 2246.47656,2753.09766 Z" id="trash---simple-line-icons-copy"></path>
        </g>
    </g>
</svg>